<svg id="Layer_1" data-name="Layer 1" xmlns="http://www.w3.org/2000/svg" viewBox="0 0 100 100"><defs><style>.cls-1{fill:#94d2ce;}.cls-1,.cls-2,.cls-3,.cls-4{stroke:#000;}.cls-1,.cls-2,.cls-3,.cls-4,.cls-5,.cls-6{stroke-miterlimit:10;}.cls-2{fill:#e24761;}.cls-3{fill:#ed4f71;}.cls-4{fill:#c64466;}.cls-5,.cls-6{fill:none;stroke:#e24761;}.cls-5{stroke-width:3px;}</style></defs><title>Blood Vessel</title><circle class="cls-1" cx="50" cy="50" r="34.23"/><path class="cls-2" d="M30.41,50.21s9.86-4.52,15.53-7.27c0,0,8-5.11,10.47-11.88a1.69,1.69,0,0,1,2-1.06c2.93.72,9.4,2.72,13.21,7.23a1.71,1.71,0,0,1,0,2.18C68.51,43,58.07,55,50.73,60c0,0-7,4.26-9.85,5.68,0,0-7,2.3-10-3.46C30.86,62.22,27.57,57.84,30.41,50.21Z"/><path class="cls-2" d="M48.83,51.67l.49.9a.63.63,0,0,1,.06.27L49,63a.5.5,0,0,0,.46.52l7,.64a.51.51,0,0,0,.55-.6c-.37-1.83-1.34-7-1.1-9.72a.51.51,0,0,1,.15-.31l1.08-1.08Z"/><ellipse class="cls-3" cx="36.45" cy="57.48" rx="8.1" ry="9.56" transform="matrix(0.83, -0.56, 0.56, 0.83, -25.8, 29.96)"/><ellipse class="cls-4" cx="36.02" cy="58.12" rx="5.05" ry="5.23"/><ellipse class="cls-3" cx="53.12" cy="63.59" rx="4.11" ry="3.51"/><ellipse class="cls-4" cx="53.03" cy="63.82" rx="2.38" ry="2.06"/><line class="cls-5" x1="46.28" y1="51.47" x2="58.26" y2="51.43"/><ellipse class="cls-6" cx="55.98" cy="51.25" rx="2.27" ry="2.18"/><ellipse cx="55.9" cy="53.87" rx="0.48" ry="0.64"/><ellipse cx="49.37" cy="53.08" rx="0.53" ry="0.64"/></svg>