<svg id="Layer_1" data-name="Layer 1" xmlns="http://www.w3.org/2000/svg" viewBox="0 0 100 100"><defs><style>.cls-1{fill:#94d2ce;}.cls-1,.cls-3{stroke:#000;stroke-miterlimit:10;}.cls-2{fill:#f2f2f2;}.cls-3{fill:none;}</style></defs><title>Bone</title><circle class="cls-1" cx="50.31" cy="50.7" r="34.23"/><path class="cls-2" d="M54.64,46.27h0A4.49,4.49,0,0,0,55,45.9a13,13,0,0,1,2-1.51,7.38,7.38,0,0,1,5.06-1.21c1.4.24,3.36,0,4.17-1.31s.81-2.24-.36-3.18a5.73,5.73,0,0,0-3.63-1.07,15.6,15.6,0,0,0-2.73.19c-.08,0-.12-.09,0-.14a5.11,5.11,0,0,1,2.48-.61,3,3,0,0,1-.06-.76c0-1.36-.36-3-1.75-3.69A3.15,3.15,0,0,0,56,34.21a9.21,9.21,0,0,0-.31,3.52,7.91,7.91,0,0,1-1.56,5.42A15.89,15.89,0,0,1,51.36,46c-2.64,2.81-6.88,7-8,7.82A7.84,7.84,0,0,1,38,55.4a9.38,9.38,0,0,0-3.51.31,3.15,3.15,0,0,0-1.6,4.16c.64,1.4,2.32,1.73,3.68,1.76a3.42,3.42,0,0,1,.76,0,5.15,5.15,0,0,1,.62-2.48c0-.06.16,0,.13.06A17.72,17.72,0,0,0,37.87,62,5.8,5.8,0,0,0,39,65.62c.93,1.16,2,1.11,3.17.36s1.56-2.77,1.32-4.18a7.3,7.3,0,0,1,1.21-5,11.49,11.49,0,0,1,1.51-2c.58-.58,4.69-5,7-7.22a5.44,5.44,0,0,1,.55-.52A5.88,5.88,0,0,1,54.64,46.27Z"/><path d="M40.57,67.36a2.9,2.9,0,0,1-2-1c-1.21-1.37-1.57-3.75-1.11-7.15,0,0,.73-.75,1,.09s-.88,4.39.85,6.37a2,2,0,0,0,1.31.74,3,3,0,0,0,2.19-1.07,4.05,4.05,0,0,0,.6-2.79c-.84-3,1.44-6.33,1.54-6.47,2-3.28,10.89-10.9,11-11A10.89,10.89,0,0,1,61.12,43h.13c1.91.33,3.39.13,4.28-.58a2.44,2.44,0,0,0,.91-1.62,2.2,2.2,0,0,0-.62-2c-1.44-1.29-5.36-.9-6.25-.6s-.47-.92-.22-1,5-1.07,7.14.83a3.15,3.15,0,0,1,1,2.85,3.46,3.46,0,0,1-1.28,2.32c-1.13.9-2.81,1.17-5,.79a9.9,9.9,0,0,0-4.64,1.84c-2.27,1.94-9.13,8.1-10.8,10.76,0,.05-2.12,3.12-1.4,5.7a5,5,0,0,1-.77,3.61,4,4,0,0,1-2.95,1.47Z"/><path class="cls-3" d="M61.94,37.06s1-4.92-4.27-4.73c0,0-3.15.68-2.37,6.08a7.61,7.61,0,0,1-1.87,4.89s-9.24,9.78-11.29,10.76A5.07,5.07,0,0,1,39,55.12s-6.13-1-6.75,2.49,2.43,4.58,5,4.07"/></svg>