<svg id="Layer_1" data-name="Layer 1" xmlns="http://www.w3.org/2000/svg" viewBox="0 0 100 100"><defs><style>.cls-1{fill:#94d2ce;}.cls-1,.cls-2,.cls-4{stroke:#000;}.cls-1,.cls-2,.cls-4,.cls-6{stroke-miterlimit:10;}.cls-2,.cls-5{fill:#e24761;}.cls-3{fill:#f9859e;}.cls-4,.cls-6{fill:none;}.cls-6{stroke:#020202;}</style></defs><title>Heart Valve</title><circle class="cls-1" cx="50" cy="50" r="34.23"/><circle class="cls-2" cx="58.95" cy="60.81" r="11.17"/><circle class="cls-3" cx="58.95" cy="60.73" r="9.16"/><path class="cls-2" d="M58.21,69.67a79.9,79.9,0,0,1,.12-18l1.73,0a89.16,89.16,0,0,0,.07,17.85Z"/><circle class="cls-4" cx="58.95" cy="60.68" r="9.16"/><circle class="cls-2" cx="40.48" cy="40.92" r="10.87"/><circle class="cls-3" cx="40.48" cy="40.96" r="8.92"/><rect class="cls-5" x="39.59" y="31.96" width="1.72" height="9.59"/><rect class="cls-5" x="32.33" y="42.92" width="8.72" height="1.72" transform="translate(-17.17 24.77) rotate(-30.59)"/><rect class="cls-5" x="43.4" y="39.23" width="1.72" height="8.55" transform="translate(-14.62 63.11) rotate(-62.93)"/><circle class="cls-4" cx="40.48" cy="40.92" r="8.92"/><path class="cls-6" d="M39.65,32.43v8.15a.5.5,0,0,1-.23.42L33,45a.5.5,0,0,0-.16.66l.39.66a.48.48,0,0,0,.66.17l6.46-3.71a.47.47,0,0,1,.46,0L46.94,46a.48.48,0,0,0,.64-.18L48,45a.47.47,0,0,0-.2-.68l-6.16-3.15a.49.49,0,0,1-.27-.42l-.18-8.21a.48.48,0,0,0-.48-.48H39.51Z"/></svg>