<svg id="Layer_1" data-name="Layer 1" xmlns="http://www.w3.org/2000/svg" viewBox="0 0 100 100"><defs><style>.cls-1{fill:#94d2ce;}.cls-1,.cls-2,.cls-5,.cls-6{stroke:#000;stroke-miterlimit:10;}.cls-2{fill:#c1405c;stroke-width:0.7px;}.cls-3{fill:#e24761;}.cls-4{fill:#ba3e59;}.cls-5{fill:none;}.cls-6{fill:#ea4b6d;}</style></defs><title>Intestines</title><circle class="cls-1" cx="50" cy="50" r="34.23"/><path class="cls-2" d="M34.16,53.08s7.67,1.1,6.84,5.37c-.14.73-1,.46-1.3,0s-.17-3.2-5.54-4Z"/><ellipse class="cls-3" cx="34.09" cy="52.44" rx="3.88" ry="3.55"/><ellipse class="cls-3" cx="34.2" cy="48.81" rx="3.88" ry="3.55"/><ellipse class="cls-3" cx="34.49" cy="44.39" rx="3.88" ry="3.55"/><ellipse class="cls-3" cx="34.57" cy="40.25" rx="3.88" ry="3.55"/><ellipse class="cls-3" cx="65.43" cy="53.74" rx="3.88" ry="3.55"/><ellipse class="cls-3" cx="63.17" cy="57.14" rx="3.55" ry="3.88" transform="translate(-21.29 46.14) rotate(-34.71)"/><ellipse class="cls-3" cx="65.54" cy="50.12" rx="3.88" ry="3.55"/><ellipse class="cls-3" cx="65.83" cy="45.69" rx="3.88" ry="3.55"/><ellipse class="cls-3" cx="65.91" cy="41.56" rx="3.88" ry="3.55"/><ellipse class="cls-3" cx="40.01" cy="39.96" rx="3.55" ry="3.88"/><ellipse class="cls-3" cx="44.58" cy="39.96" rx="3.55" ry="3.88"/><ellipse class="cls-3" cx="49.51" cy="40.83" rx="3.55" ry="3.88"/><ellipse class="cls-3" cx="56.53" cy="60.11" rx="3.55" ry="3.88"/><ellipse class="cls-3" cx="54.3" cy="39.96" rx="3.55" ry="3.88"/><ellipse class="cls-3" cx="59.01" cy="58.23" rx="3.55" ry="3.88"/><ellipse class="cls-3" cx="59.59" cy="39.89" rx="3.55" ry="3.88"/><ellipse class="cls-3" cx="64.53" cy="40.11" rx="3.55" ry="3.88"/><path class="cls-4" d="M35.25,51.89a2.12,2.12,0,0,1-1.57-.69s-1.11-1.88.42-.4,2.93-.2,3-.27l.37.44A3.68,3.68,0,0,1,35.25,51.89Z"/><path class="cls-4" d="M52.11,43.36a2.09,2.09,0,0,1-.59-1.6s.57-2.11.57,0,2.19,2,2.29,2l-.05.57A3.68,3.68,0,0,1,52.11,43.36Z"/><path class="cls-4" d="M57,42.82a2.08,2.08,0,0,1-.6-1.61s.57-2.11.58,0,2.19,2,2.28,2l0,.58A3.66,3.66,0,0,1,57,42.82Z"/><path d="M59.21,61.31a1.73,1.73,0,0,1-.13,1.44s-1.23,1.43-.44-.21-1-2.26-1.06-2.3l.24-.42A3,3,0,0,1,59.21,61.31Z"/><path class="cls-4" d="M61.93,60.61a2.11,2.11,0,0,1-.74-1.55s.39-2.15.58,0,2.35,1.77,2.45,1.77v.57A3.69,3.69,0,0,1,61.93,60.61Z"/><path class="cls-4" d="M66.25,57.31a2.09,2.09,0,0,1-1.57-.7s-1.11-1.87.42-.39S68,56,68.11,56l.37.43A3.63,3.63,0,0,1,66.25,57.31Z"/><path class="cls-4" d="M68.52,52.42a2.1,2.1,0,0,1-1.67.38s-2-.85.1-.57,2.23-1.91,2.25-2l.57.12A3.71,3.71,0,0,1,68.52,52.42Z"/><path class="cls-4" d="M68.4,48.13a2.09,2.09,0,0,1-1.71.07s-1.83-1.2.2-.54,2.54-1.48,2.58-1.57l.53.23A3.65,3.65,0,0,1,68.4,48.13Z"/><path class="cls-4" d="M68.68,43.84a2.08,2.08,0,0,1-1.68.34s-2-.89.12-.57,2.27-1.86,2.3-2l.56.14A3.71,3.71,0,0,1,68.68,43.84Z"/><path class="cls-4" d="M35.75,47.14a2.05,2.05,0,0,1-1.57-.69s-1.12-1.88.41-.4,2.94-.2,3-.26l.38.43A3.68,3.68,0,0,1,35.75,47.14Z"/><path class="cls-4" d="M42.24,43.25a2.12,2.12,0,0,1-.71-1.57s.42-2.14.58,0,2.32,1.8,2.42,1.8v.58A3.71,3.71,0,0,1,42.24,43.25Z"/><path class="cls-4" d="M46.34,43.42a2,2,0,0,1-.5-1.65s.69-2.06.57.06,2.07,2.09,2.16,2.11l-.08.57A3.7,3.7,0,0,1,46.34,43.42Z"/><path class="cls-4" d="M37.61,43.91a2.11,2.11,0,0,1-1.19-1.24s-.31-2.16.54-.21,2.79.94,2.88.91l.18.54A3.61,3.61,0,0,1,37.61,43.91Z"/><path class="cls-4" d="M31.06,50.58a1.49,1.49,0,0,1-.46-.31,1.39,1.39,0,0,1-.42-1h.44a.94.94,0,0,0,.29.64c.3.29.26.28,1.49.38s0,.43,0,.43A2.87,2.87,0,0,1,31.06,50.58Z"/><path class="cls-4" d="M42.57,37.91a1.63,1.63,0,0,0-.1-.55,1.35,1.35,0,0,0-.73-.76l-.16.4a.92.92,0,0,1,.48.52c.15.39.16.35-.25,1.52s.4.2.4.2A3.09,3.09,0,0,0,42.57,37.91Z"/><path class="cls-4" d="M36.71,38.56a1.52,1.52,0,0,1,0-.56,1.35,1.35,0,0,1,.52-.91l.25.36a.94.94,0,0,0-.34.62c0,.41-.07.37.59,1.42s-.34.28-.34.28A3,3,0,0,1,36.71,38.56Z"/><path class="cls-4" d="M31.51,41.86a1.73,1.73,0,0,1-.44-.36,1.35,1.35,0,0,1-.31-1l.43.06a.94.94,0,0,0,.23.67c.27.31.22.3,1.44.51s0,.44,0,.44A3,3,0,0,1,31.51,41.86Z"/><path class="cls-4" d="M31.55,46.34A2,2,0,0,1,31,46.1a1.41,1.41,0,0,1-.55-.89l.44-.06a.93.93,0,0,0,.38.6c.34.24.29.24,1.53.14s.09.43.09.43A2.94,2.94,0,0,1,31.55,46.34Z"/><path class="cls-4" d="M47.7,38.2a1.42,1.42,0,0,0-.1-.55,1.32,1.32,0,0,0-.72-.76l-.16.4a1,1,0,0,1,.48.52c.14.39.15.35-.25,1.52s.39.2.39.2A2.83,2.83,0,0,0,47.7,38.2Z"/><path class="cls-4" d="M51.74,38.32a1.5,1.5,0,0,0-.1-.56,1.36,1.36,0,0,0-.72-.76l-.16.41a1,1,0,0,1,.48.52c.14.39.15.35-.25,1.52s.39.19.39.19A2.8,2.8,0,0,0,51.74,38.32Z"/><path class="cls-4" d="M58,37.94a1.68,1.68,0,0,0-.1-.55,1.39,1.39,0,0,0-.72-.76L57,37a.91.91,0,0,1,.47.52c.15.39.16.34-.25,1.51s.4.2.4.2A3.06,3.06,0,0,0,58,37.94Z"/><path class="cls-4" d="M61.94,38.16a1.74,1.74,0,0,1,.1-.56,1.36,1.36,0,0,1,.73-.76l.16.41a.92.92,0,0,0-.48.52c-.15.39-.16.35.25,1.52s-.4.19-.4.19A3.06,3.06,0,0,1,61.94,38.16Z"/><path class="cls-4" d="M62.23,42.45a1.67,1.67,0,0,0,.09.55,1.32,1.32,0,0,0,.7.78l.17-.4a1,1,0,0,1-.46-.53c-.14-.4-.15-.35.29-1.51s-.39-.21-.39-.21A3,3,0,0,0,62.23,42.45Z"/><path class="cls-4" d="M67.53,39.89a1.85,1.85,0,0,0,.34-.59A1.65,1.65,0,0,0,67.82,38l-.47.24a1.13,1.13,0,0,1,0,.85c-.17.47-.13.44-1.43,1.18s.2.49.2.49A3.54,3.54,0,0,0,67.53,39.89Z"/><path class="cls-4" d="M63.24,48.08a1.63,1.63,0,0,1-.55-.09,1.32,1.32,0,0,1-.77-.71l.4-.17a1,1,0,0,0,.53.47c.39.14.35.15,1.51-.26s.2.39.2.39A2.91,2.91,0,0,1,63.24,48.08Z"/><path class="cls-4" d="M62.67,52.12a1.5,1.5,0,0,1-.52-.21,1.46,1.46,0,0,1-.6-.87L62,51a.87.87,0,0,0,.41.57c.35.23.3.23,1.53.08S64,52,64,52A2.86,2.86,0,0,1,62.67,52.12Z"/><path class="cls-4" d="M61.85,53.9a1.66,1.66,0,0,1-.36-.44,1.35,1.35,0,0,1-.1-1l.41.14a1,1,0,0,0,.09.7c.19.37.16.35,1.31.81s-.11.42-.11.42A2.87,2.87,0,0,1,61.85,53.9Z"/><path class="cls-4" d="M60.34,56a1.61,1.61,0,0,1-.25-.61,1.63,1.63,0,0,1,.23-1.21l.42.3a1.1,1.1,0,0,0-.14.82c.1.48.06.44,1.2,1.35s-.26.44-.26.44A3.31,3.31,0,0,1,60.34,56Z"/><path class="cls-4" d="M56.49,56.69a2.31,2.31,0,0,0-.69-.22,1.76,1.76,0,0,0-1.3.36l.37.43a1.19,1.19,0,0,1,.87-.22c.53.06.49,0,1.57,1.19s.46-.32.46-.32A3.74,3.74,0,0,0,56.49,56.69Z"/><path class="cls-5" d="M37.45,50.42a.29.29,0,0,0-.08.35c.47,1,2.14,5.09-3.32,5.22-4.7.11-3.64-4.64-3.44-5.39a.31.31,0,0,0,0-.19A3.75,3.75,0,0,1,31,46.49a.27.27,0,0,0,.05-.31c-.94-2.22.14-2.69.27-3.94s-2.1-2.4.88-4.86l0,0c.28-.15,2.79-1.44,4.5.14a.31.31,0,0,0,.43,0A4,4,0,0,1,40,36.08c1.89-.11,1.94,1,2.37,1s.79-1.27,2.66-1a3.13,3.13,0,0,1,2.16,1.23.29.29,0,0,0,.44,0A2.75,2.75,0,0,1,49.47,37a2.14,2.14,0,0,1,1.67.59.29.29,0,0,0,.45,0,3.3,3.3,0,0,1,2.67-1.44,3.91,3.91,0,0,1,2.44,1.09.28.28,0,0,0,.42,0A3.29,3.29,0,0,1,59.55,36,2.84,2.84,0,0,1,62,37.1a.3.3,0,0,0,.47,0,2.53,2.53,0,0,1,2.68-.76,3.55,3.55,0,0,1,2.65,2.17s3.36,1.3,1.35,5.1a.31.31,0,0,0,0,.28c.29.52,1.24,2.49-.27,3.9a.3.3,0,0,0-.06.39c.34.45,1,1.68.07,3.89a.25.25,0,0,0,0,.24c.27.53,1.27,2.91-1.9,4.66a.32.32,0,0,0-.15.32c.1.45.12,1.6-1.48,3a2.37,2.37,0,0,1-3.3.34.28.28,0,0,0-.44.09,2.14,2.14,0,0,1-2.08,1.32s-2.15,3.9-5.75.58a.19.19,0,0,1-.06-.07c-.27-.45-2.44-4.35,2-6.19a.32.32,0,0,0,.16-.14A3.23,3.23,0,0,1,60,54.6a.27.27,0,0,0,.31-.09,2.1,2.1,0,0,1,1-.75.28.28,0,0,0,.21-.3c0-.45-.06-1.29.32-1.55a.29.29,0,0,0,.12-.36,3.38,3.38,0,0,1,.45-3.72.29.29,0,0,0,.06-.34c-1.53-3.12.54-3.2.35-3.92s-.51-.22-.74-.54a.29.29,0,0,0-.42-.06,3.5,3.5,0,0,1-4.5-.26.3.3,0,0,0-.43,0,3,3,0,0,1-4.22.68.3.3,0,0,0-.39.08,3.09,3.09,0,0,1-2.61,1.22,3.83,3.83,0,0,1-2.77-1.36.28.28,0,0,0-.41,0,2.32,2.32,0,0,1-1.76.51,3.12,3.12,0,0,1-2.18-.68.3.3,0,0,0-.39,0,2.83,2.83,0,0,1-2,.7,3.67,3.67,0,0,1-1.36-.35.29.29,0,0,0-.43.3,3.57,3.57,0,0,1-.7,2.88.27.27,0,0,0,0,.32C37.74,47.54,38.61,49.36,37.45,50.42Z"/><path class="cls-6" d="M53.44,60.24c0-1.48,4.35-.32,4.81.15s-1.31,8.72-1.84,9a2.1,2.1,0,0,1-1.73-.22C54.06,68.85,53.47,61.73,53.44,60.24Z"/></svg>