<svg id="Layer_1" data-name="Layer 1" xmlns="http://www.w3.org/2000/svg" viewBox="0 0 100 100"><defs><style>.cls-1{fill:#94d2ce;}.cls-1,.cls-2{stroke:#000;stroke-miterlimit:10;}.cls-2{fill:#e24761;}</style></defs><title>Kidneys</title><circle class="cls-1" cx="50" cy="50" r="34.23"/><path class="cls-2" d="M44.72,46.77c-.8.44-2.33,1.06-2.25,1.43a3.77,3.77,0,0,0,2.23,1.26c.72,0,2.5-.89,3.77-1.42A.85.85,0,0,0,49,47a1.21,1.21,0,0,1-.05-.18.85.85,0,0,0-1-.6A14.69,14.69,0,0,0,44.72,46.77Z"/><path class="cls-2" d="M43.49,63.76c-.8,2.5-3.68,4.26-7.16,4.26h0c-4.91,0-9.26-3.14-11.62-8.26-4.22-9.15.65-17.59,1.37-18.76.39-.4,1.31-.93,3.41-.47A.77.77,0,1,0,29.83,39c-1.19-.27-2,.49-2.87-.13S34,32,38.1,32c3.92,0,7,1.86,7.77,4.74s.6,5.08-.48,6.93a8.18,8.18,0,0,1-4.7,3.59c-.48,0-3.37-1.46-4.1-3.2a.78.78,0,0,0-1-.41.77.77,0,0,0-.41,1c.89,2.14,4.27,3.39,4.47,3.85a18.69,18.69,0,0,1,.3,3.24A6.87,6.87,0,0,1,36,56a.77.77,0,1,0,.64,1.41c2.4-1.08,3.36-4.17,4.3-4.14S45.1,58.77,43.49,63.76Z"/><path class="cls-2" d="M43.33,50.38c-.81-.51-1.8-1.47-2.29-1.11s.47,2.16.71,2.56a.44.44,0,0,0,.09.11,14.13,14.13,0,0,1,1.42,1.87A12.25,12.25,0,0,1,46,58a1.86,1.86,0,0,0,1.73,1.2h.1a.81.81,0,0,0,.81-1A11.82,11.82,0,0,0,43.33,50.38Z"/><path class="cls-2" d="M55.28,46.77c.8.44,2.33,1.06,2.25,1.43a3.77,3.77,0,0,1-2.23,1.26c-.72,0-2.5-.89-3.77-1.42A.85.85,0,0,1,51,47a1.21,1.21,0,0,0,.05-.18.85.85,0,0,1,1-.6A14.69,14.69,0,0,1,55.28,46.77Z"/><path class="cls-2" d="M59.07,53.3c.94,0,1.9,3.06,4.3,4.14A.77.77,0,1,0,64,56a6.87,6.87,0,0,1-3.94-4.3,18.69,18.69,0,0,1,.3-3.24c.2-.46,3.58-1.71,4.47-3.85a.77.77,0,0,0-.41-1,.78.78,0,0,0-1,.41c-.73,1.74-3.62,3.19-4.1,3.2a8.18,8.18,0,0,1-4.7-3.59c-1.08-1.85-1.24-4.19-.48-6.93S58,32,61.9,32c4.11,0,12,6.3,11.14,6.91s-1.68-.14-2.87.13a.77.77,0,1,0,.34,1.51c2.1-.46,3,.07,3.41.47.72,1.17,5.59,9.61,1.37,18.76C72.93,64.88,68.58,68,63.67,68h0c-3.48,0-6.36-1.76-7.16-4.26C54.9,58.77,58.13,53.34,59.07,53.3Z"/><path class="cls-2" d="M56.67,50.38c.81-.51,1.8-1.47,2.29-1.11s-.47,2.16-.71,2.56a.44.44,0,0,1-.09.11,14.13,14.13,0,0,0-1.42,1.87A12.25,12.25,0,0,0,54.05,58a1.86,1.86,0,0,1-1.73,1.2h-.1a.81.81,0,0,1-.81-1A11.82,11.82,0,0,1,56.67,50.38Z"/></svg>