<svg id="Layer_1" data-name="Layer 1" xmlns="http://www.w3.org/2000/svg" viewBox="0 0 100 100"><defs><style>.cls-1{fill:#94d2ce;}.cls-1,.cls-3{stroke:#000;stroke-miterlimit:10;}.cls-2{fill:#e24761;}.cls-3{fill:none;}</style></defs><title>Liver</title><circle class="cls-1" cx="50" cy="50" r="34.23"/><path class="cls-2" d="M38.6,65.72a2.2,2.2,0,0,0,2.2.78,2.68,2.68,0,0,0,1.52-2.06C40.94,64.94,39.66,65.37,38.6,65.72Z"/><path class="cls-2" d="M74.21,47.24l1-1.35c2-2.77,4-5.38,3.2-6.88-.89-1.77-5.56-2.67-13.86-2.67h-.26a19.42,19.42,0,0,0-3,9.35c.46,2.83-1.6,8.13-1.14,9S70.17,52.84,74.21,47.24Z"/><path class="cls-2" d="M56.61,36.31l-.45,0c1.66,1.83,2.08,5.55,3.69,5.52,1.27,0,1.3-2.51,1.73-4.38a1.05,1.05,0,0,0-1.06-1.3C59.28,36.2,58,36.25,56.61,36.31Z"/><path class="cls-2" d="M57.77,55.09a16.18,16.18,0,0,0,1.49-8.7.86.86,0,0,1-.09-.42s0-.07,0-.1c-.56-3.2-2.31-6.23-5.33-9.27h-.46c-2.06,0-4.16-.07-6.2-.14s-3.95-.14-5.83-.14c-5.91,0-11.75.6-14.51,5-3.93,6.24-3.09,12.59-2.35,18.2.16,1.21.31,2.36.41,3.48.37,4,1,6.69,2.84,6.69,1.5,0,3.82-1.44,6.9-4.29a.81.81,0,0,1,.31-.18C35.15,65.15,53.52,59.56,57.77,55.09Z"/><path class="cls-3" d="M24.5,59.51s-2.61-11.59,2.74-18.86c0,0,3.18-4.82,14.12-4.33s12,.28,12,.28,1.69-.61,5,6.65-2.18,13.14-2.18,13.14-6.48,4.69-12.12,5.77l-7,2.35S33.52,66,32.57,67.19a11.34,11.34,0,0,1-3.36,2.21c-1.77.64-2.89,1.39-3.87-3.09Z"/><path class="cls-3" d="M38.74,66.48s2.18,1.94,3.59-1.1c0,0,1.24-1.79-1.56-.39S37.34,65.7,38.74,66.48Z"/><path class="cls-3" d="M57,37.62s3.49,8.94,4.37.82a1.78,1.78,0,0,0-2.09-2.28C56.61,36.31,56,36,57,37.62Z"/><path class="cls-3" d="M64.28,36.34s8.83.2,11,.9,4.7,1.33,2.16,5.26S71.73,51.83,64,54.11c0,0-6.72,3-3-4.5a64.66,64.66,0,0,0,1.28-8.15A4.54,4.54,0,0,1,62.5,40,12.81,12.81,0,0,1,64.28,36.34Z"/></svg>