<svg id="Layer_1" data-name="Layer 1" xmlns="http://www.w3.org/2000/svg" viewBox="0 0 100 100"><defs><style>.cls-1{fill:#94d2ce;}.cls-1,.cls-3{stroke:#000;stroke-miterlimit:10;}.cls-2{fill:#e24761;}.cls-3{fill:#b965e5;stroke-width:0.48px;}</style></defs><title>Nerve</title><circle class="cls-1" cx="50" cy="50" r="34.23"/><path class="cls-2" d="M38.29,31.82s7.91,12.62,8-.49c0,0,1.39,16.61,7.89,3.2,0,0-7.17,13.07,1.48,12.45,0,0-6.48.75-5.3,2.1,0,0,6.53,13.43,14.17,14.66,0,0,2.1-2.46,3.82-1.35,0,0-2.78.36-2.58,1.6,0,0,2.46,2.09,2.21,4.19,0,0,.13-1.36-2.34-2.47,0,0-1,2.84-2.22,3,0,0,1.48-1,.74-3.69,0,0-13.68-5.18-15.53-14.67l-.49,5.42s-1.11-15-10-2.59c0,0,8.63-11.21-6.53-13.55C31.64,39.59,45.69,43.1,38.29,31.82Z"/><circle class="cls-3" cx="46.36" cy="43.96" r="1.71"/><path d="M41.54,40.63H40c-.25,0-.23-.48,0-.48h1.55C41.75,40.14,41.76,40.63,41.54,40.63Z"/><path d="M42,44.2H40v-.48h2C42.24,43.72,42.28,44.2,42,44.2Z"/><path d="M43.25,47.62H40.61v-.48h2.64C43.54,47.14,43.5,47.62,43.25,47.62Z"/><path d="M51.48,41.56s-2.65,0-2.79,0-.12-.47,0-.48h2.79Z"/><path d="M44.73,43.56H43.1c-.37,0-.25-.48,0-.48h1.63Z"/><path d="M43.94,46H40.68v-.48h3.26C44.21,45.48,44.23,46,43.94,46Z"/><path d="M62.52,69.06c-.07-.15.75-.51.8-.53h0c.09-.06,1.25-.94.68-3.27a.08.08,0,0,0-.05,0C62.55,64.63,51.73,60,48.9,52.11a.08.08,0,0,0-.15,0c-.1,1-.34,3.54-.34,3.69s-.44.28-.48,0-.51-6.46-3.23-7.22c-1.57-.44-3.61,1.05-6.08,4.44-.13.18-.16.21-.24.33s-.51-.13-.39-.29l.17-.24c.68-1,3.17-4.91,1.85-8.21-.85-2.1-3.08-3.58-6.65-4.4h0c-1-.14-1.54-.3-1.75-.34s-.1-.49.09-.47,1.15.2,1.69.32c2,.29,5.29.48,6.43-1.13.87-1.23.37-3.34-1.5-6.28-.11-.17-.13-.18-.2-.31s.32-.4.41-.26a3.76,3.76,0,0,0,.23.36c1.2,1.82,4,5.44,5.67,5,.74-.21,1.7-2.61,1.66-5.68,0-.24.53-.42.48,0s1.08,7.83,3,8.2c.73.13,2-.48,3.83-3.94.31-.65.52-1,.58-1.15s.51.07.43.22l-.53,1.05c-1.06,2.22-3.25,7.4-1.71,9.81.49,1.14,3.21,1.27,3.48,1.24s.32.46,0,.49-5,.85-5.22,1.48c0,0,0,.09.07.21l0,.06c.06.13,6.46,13.12,13.82,14.5a.08.08,0,0,0,.07,0c.49-.53,2.37-2.33,4-1.27,0,0,.56.22.56.36s-.66.08-.66.08c-.53.07-2,.36-2.34.92a.43.43,0,0,0-.06.31c.39.35,2.55,2.46,2.24,4.35s-.46.09-.48-.05,0-1.09-1.88-2.07a.08.08,0,0,0-.12,0c-.32.8-1.18,2.68-2.3,2.79C63.48,69,62.58,69.22,62.52,69.06ZM48.58,48.66a6.81,6.81,0,0,1,.32,1.66c1.81,9.25,15.25,14.43,15.38,14.48s0,0,.12,0,0,.12,0,.12a12.49,12.49,0,0,1,0,2.7c.13.12.83-1.53,1-2,0,0,0-.22.08-.25s.24.11.24.11c.83.37,1.5,1.27,1.74,1.15s-1.85-2.46-1.87-2.47l0,0,0-.07a.76.76,0,0,1,0-.72c.31-.47,1.76-.62,1.76-1s-2.13.8-2.32,1a3.47,3.47,0,0,0-.39.62l-.13,0C57,62.81,50.61,50.13,50.19,49.26a.63.63,0,0,1-.14-.67c.25-.67,1.83-1.13,3.27-1.42a.08.08,0,0,0,0-.15,3,3,0,0,1-1.54-1.21c-1.1-1.72-.53-4.58.31-7a.08.08,0,0,0-.14-.07c-.88,1-1.69,1.43-2.46,1.29-1.64-.31-2.53-3.27-3-5.65,0-.09-.14-.07-.16,0-.29,1.84-.89,2.86-1.79,3.12-1.26.36-2.83-1-4.11-2.4a.08.08,0,0,0-.13.09q.82,2.34-.12,3.66c-.8,1.13-2.46,1.51-4.08,1.53a.08.08,0,0,0,0,.15,7.31,7.31,0,0,1,4.36,3.89,7.79,7.79,0,0,1-.32,5.74.08.08,0,0,0,.14.08c1.73-1.79,3.26-2.51,4.55-2.14,1.82.5,2.73,3,3.18,5a.08.08,0,0,0,.16,0S48.34,48.51,48.58,48.66Z"/></svg>