<svg id="Layer_1" data-name="Layer 1" xmlns="http://www.w3.org/2000/svg" viewBox="0 0 100 100"><defs><style>.cls-1{fill:#94d2ce;}.cls-1,.cls-2{stroke:#000;stroke-miterlimit:10;}.cls-2{fill:#ff5267;}.cls-3{fill:#cc4a66;}</style></defs><title>Pancreas</title><circle class="cls-1" cx="50" cy="50" r="34.23"/><path class="cls-2" d="M72.69,38.41a2,2,0,0,0-2.7-.24.66.66,0,0,1-.69,0,2.71,2.71,0,0,0-2.85.08.81.81,0,0,1-.57.08,2.45,2.45,0,0,0-2.36.28.74.74,0,0,1-.78.19,2,2,0,0,0-2.4.4.73.73,0,0,1-.85.27,2.18,2.18,0,0,0-2.42.33.7.7,0,0,1-.82.14A3.12,3.12,0,0,0,53,40a.73.73,0,0,1-.6.15c-.81-.17-2.94-.48-4.23.74a.71.71,0,0,1-.82.11,2.82,2.82,0,0,0-2.83.16.73.73,0,0,1-.52.09c-.82-.16-3.28-.55-4.65.41a.74.74,0,0,1-.52.15c-.77-.09-2.95-.24-4.33.88A4.94,4.94,0,0,0,30.9,45s-2.36,1.26-2.52,3.41a.72.72,0,0,1-.22.5,4.76,4.76,0,0,0-1.28,5.42.67.67,0,0,1,0,.5,6.37,6.37,0,0,0,.33,4.68s.66,2.92,2.83,3.27a.79.79,0,0,1,.46.24,5.66,5.66,0,0,0,4.36,2,.86.86,0,0,1,.27,0c.67.25,3.89,1.36,5.81,0a8.13,8.13,0,0,0,3.48-2.53,3.5,3.5,0,0,0,.48-4.14,3.33,3.33,0,0,0-.34-1.69.71.71,0,0,1,.46-1,3.93,3.93,0,0,0,1.72-.76.79.79,0,0,1,.48-.22c.78,0,3-.19,4.11-1.31a.76.76,0,0,1,.39-.22c.73-.11,3-.56,4-1.85a.73.73,0,0,1,.41-.26,9.75,9.75,0,0,0,4.48-2,.67.67,0,0,1,.3-.18,22.91,22.91,0,0,0,3.73-1.22.71.71,0,0,1,.24-.06c.57,0,2.91-.28,3.54-1.43,0,0,2.52-.78,3.11-2.52,0,0,1.56-1.56,1.08-2.82C72.69,40.75,73.35,38.89,72.69,38.41Z"/><path class="cls-3" d="M33.77,58.62a6.87,6.87,0,0,0-.32-8.06c-.22-.31-.74,0-.52.3a6.29,6.29,0,0,1,.32,7.46c-.22.31.3.61.52.3Z"/><path class="cls-3" d="M34.73,53.71c2.35-2.07,4.44-5.2,4-8.44-.06-.38-.64-.21-.58.16.45,3-1.63,6-3.79,7.86-.29.25.14.68.42.42Z"/><path class="cls-3" d="M37.9,49.22c4-.21,8.61-1.57,10.82-5.07.21-.33-.31-.63-.51-.31-2.09,3.31-6.58,4.58-10.31,4.78-.38,0-.38.62,0,.6Z"/><path class="cls-3" d="M46.71,46.28c4.7.58,11.29.38,14.41-3.73.23-.31-.29-.61-.52-.31-3,3.91-9.43,4-13.89,3.44-.38,0-.38.55,0,.6Z"/><path class="cls-3" d="M59.08,44.58c3.41.3,7.7-.1,10.19-2.69.26-.28-.16-.71-.43-.43-2.37,2.48-6.51,2.81-9.76,2.52-.39,0-.38.56,0,.6Z"/><path class="cls-3" d="M34.71,55.8a7,7,0,0,1,5.89,2.48c.26.29.68-.14.43-.43a7.49,7.49,0,0,0-6.48-2.63c-.38.06-.22.63.16.58Z"/><path class="cls-3" d="M37.06,51a5,5,0,0,1,4,2.64c.18.34.7,0,.52-.3a5.64,5.64,0,0,0-4.53-2.94c-.39,0-.38.58,0,.6Z"/><path class="cls-3" d="M44.12,47.79a5.76,5.76,0,0,1,5.36,2.51c.21.33.73,0,.52-.3a6.38,6.38,0,0,0-5.88-2.81c-.38,0-.38.63,0,.6Z"/><path class="cls-3" d="M55.39,46a4,4,0,0,1,2,3c0,.38.65.38.6,0a4.65,4.65,0,0,0-2.33-3.48c-.34-.18-.64.34-.3.52Z"/></svg>