<svg id="Layer_1" data-name="Layer 1" xmlns="http://www.w3.org/2000/svg" viewBox="0 0 100 100"><defs><style>.cls-1{fill:#94d2ce;}.cls-1,.cls-4,.cls-5{stroke:#000;stroke-miterlimit:10;}.cls-2{fill:#d6a099;}.cls-3{fill:#d8c971;}.cls-4,.cls-5{fill:#fdecc9;}.cls-5{stroke-width:1.01px;}</style></defs><title>Skin</title><circle class="cls-1" cx="50" cy="50" r="34.23"/><path class="cls-2" d="M31.7,57a.33.33,0,0,0,0-.66.33.33,0,0,0,0,.66Z"/><path class="cls-2" d="M33.35,55.2a.33.33,0,0,0,0-.66.33.33,0,0,0,0,.66Z"/><path class="cls-2" d="M30.93,54.76a.33.33,0,0,0,0-.66.33.33,0,0,0,0,.66Z"/><path class="cls-2" d="M34.56,59.16a.33.33,0,0,0,0-.66.33.33,0,0,0,0,.66Z"/><path class="cls-2" d="M55.79,56.63a.33.33,0,0,0,0-.66.33.33,0,0,0,0,.66Z"/><path class="cls-2" d="M49.3,59.27a.33.33,0,0,0,0-.66.33.33,0,0,0,0,.66Z"/><path class="cls-2" d="M42.92,55.75a.33.33,0,0,0,0-.66.33.33,0,0,0,0,.66Z"/><path class="cls-2" d="M38.19,53.88a.33.33,0,0,0,0-.66.33.33,0,0,0,0,.66Z"/><path class="cls-2" d="M39.18,59.82a.33.33,0,0,0,0-.66.33.33,0,0,0,0,.66Z"/><path class="cls-2" d="M47.54,59.93a.33.33,0,0,0,0-.66.33.33,0,0,0,0,.66Z"/><path class="cls-2" d="M43.14,53.44a.33.33,0,0,0,0-.66.33.33,0,0,0,0,.66Z"/><path class="cls-2" d="M49.19,53.77a.33.33,0,0,0,0-.66.33.33,0,0,0,0,.66Z"/><path class="cls-2" d="M44.35,59.38a.33.33,0,0,0,0-.66.33.33,0,0,0,0,.66Z"/><path class="cls-2" d="M59.64,55.64a.33.33,0,0,0,0-.66.33.33,0,0,0,0,.66Z"/><path class="cls-2" d="M54.47,54.76a.33.33,0,0,0,0-.66.33.33,0,0,0,0,.66Z"/><path class="cls-2" d="M55.79,58.72a.33.33,0,0,0,0-.66.33.33,0,0,0,0,.66Z"/><path class="cls-2" d="M62.5,58.72a.33.33,0,0,0,0-.66.33.33,0,0,0,0,.66Z"/><path class="cls-2" d="M58.21,56.52a.33.33,0,0,0,0-.66.33.33,0,0,0,0,.66Z"/><path class="cls-2" d="M62.83,55.86a.33.33,0,0,0,0-.66.33.33,0,0,0,0,.66Z"/><path class="cls-2" d="M59.31,52.45a.33.33,0,0,0,0-.66.33.33,0,0,0,0,.66Z"/><path class="cls-2" d="M68.11,53.22a.33.33,0,0,0,0-.66.33.33,0,0,0,0,.66Z"/><path class="cls-2" d="M68.44,56.85a.33.33,0,0,0,0-.66.33.33,0,0,0,0,.66Z"/><path class="cls-2" d="M59.75,58.94a.33.33,0,0,0,0-.66.33.33,0,0,0,0,.66Z"/><path class="cls-2" d="M65.58,58.94a.33.33,0,0,0,0-.66.33.33,0,0,0,0,.66Z"/><path class="cls-2" d="M67.45,54.76a.33.33,0,0,0,0-.66.33.33,0,0,0,0,.66Z"/><path class="cls-2" d="M64.81,54.76a.33.33,0,0,0,0-.66.33.33,0,0,0,0,.66Z"/><path class="cls-2" d="M62.28,54.1a.33.33,0,0,0,0-.66.33.33,0,0,0,0,.66Z"/><path class="cls-2" d="M69.43,59.38a.33.33,0,0,0,0-.66.33.33,0,0,0,0,.66Z"/><path class="cls-2" d="M58.43,58.83a.33.33,0,0,0,0-.66.33.33,0,0,0,0,.66Z"/><path class="cls-2" d="M54,56.63A.33.33,0,0,0,54,56a.33.33,0,0,0,0,.66Z"/><path class="cls-2" d="M57.33,53.77a.33.33,0,0,0,0-.66.33.33,0,0,0,0,.66Z"/><path class="cls-2" d="M52.6,53.66a.33.33,0,0,0,0-.66.33.33,0,0,0,0,.66Z"/><path class="cls-3" d="M30.16,62.9a.88.88,0,0,0,0-1.76.88.88,0,0,0,0,1.76Z"/><path class="cls-3" d="M33.13,65.21a.88.88,0,0,0,0-1.76.88.88,0,0,0,0,1.76Z"/><path class="cls-3" d="M30.38,65.65a.88.88,0,0,0,0-1.76.88.88,0,0,0,0,1.76Z"/><path class="cls-3" d="M35.66,63.67a.88.88,0,0,0,0-1.76.88.88,0,0,0,0,1.76Z"/><path class="cls-3" d="M33.24,63.67a.88.88,0,0,0,0-1.76.88.88,0,0,0,0,1.76Z"/><path class="cls-3" d="M40.39,64.77a.88.88,0,0,0,0-1.76.88.88,0,0,0,0,1.76Z"/><path class="cls-3" d="M47.87,64a.88.88,0,0,0,0-1.76.88.88,0,0,0,0,1.76Z"/><path class="cls-3" d="M37.64,65.54a.88.88,0,0,0,0-1.76.88.88,0,0,0,0,1.76Z"/><path class="cls-3" d="M40.17,63.23a.88.88,0,0,0,0-1.76.88.88,0,0,0,0,1.76Z"/><path class="cls-3" d="M44.68,64.11a.88.88,0,0,0,0-1.76.88.88,0,0,0,0,1.76Z"/><path class="cls-3" d="M51.61,65.65a.88.88,0,0,0,0-1.76.88.88,0,0,0,0,1.76Z"/><path class="cls-3" d="M42.81,65.76a.88.88,0,0,0,0-1.76.88.88,0,0,0,0,1.76Z"/><path class="cls-3" d="M53,63.89a.88.88,0,0,0,0-1.76.88.88,0,0,0,0,1.76Z"/><path class="cls-3" d="M50.07,63.56a.88.88,0,0,0,0-1.76.88.88,0,0,0,0,1.76Z"/><path class="cls-3" d="M46.22,65.54a.88.88,0,0,0,0-1.76.88.88,0,0,0,0,1.76Z"/><path class="cls-3" d="M62.17,65.1a.88.88,0,0,0,0-1.76.88.88,0,0,0,0,1.76Z"/><path class="cls-3" d="M57,65.1a.88.88,0,0,0,0-1.76.88.88,0,0,0,0,1.76Z"/><path class="cls-3" d="M55.13,65.21a.88.88,0,0,0,0-1.76.88.88,0,0,0,0,1.76Z"/><path class="cls-3" d="M56.56,62.9a.88.88,0,0,0,0-1.76.88.88,0,0,0,0,1.76Z"/><path class="cls-3" d="M60.63,63a.88.88,0,0,0,0-1.76.88.88,0,0,0,0,1.76Z"/><path class="cls-3" d="M59.31,65.54a.88.88,0,0,0,0-1.76.88.88,0,0,0,0,1.76Z"/><path class="cls-3" d="M65.58,65.1a.88.88,0,0,0,0-1.76.88.88,0,0,0,0,1.76Z"/><path class="cls-3" d="M63.93,63a.88.88,0,0,0,0-1.76.88.88,0,0,0,0,1.76Z"/><path class="cls-3" d="M69.65,64.44a.88.88,0,0,0,0-1.76.88.88,0,0,0,0,1.76Z"/><path class="cls-3" d="M67.34,63.23a.88.88,0,0,0,0-1.76.88.88,0,0,0,0,1.76Z"/><path class="cls-4" d="M29.8,59.83l40.11-.22a1,1,0,0,1,1,1l.12,3.13a1,1,0,0,1-1,1H29.83a1,1,0,0,1-1-1l0-2.9A1,1,0,0,1,29.8,59.83Z"/><path class="cls-5" d="M29.6,62.68l40.67-.22a1,1,0,0,1,1,1l.13,3.13a1,1,0,0,1-1,1H29.63a1,1,0,0,1-1-1l0-2.9A1,1,0,0,1,29.6,62.68Z"/><path class="cls-4" d="M71,50.05l0,9.36a1.3,1.3,0,0,1-1.31,1.31l-39.61.09a1.32,1.32,0,0,1-1.32-1.3l-.11-9.74A1.32,1.32,0,0,1,30,48.44l39.68.3A1.32,1.32,0,0,1,71,50.05Z"/><path class="cls-4" d="M30,44.41c4.17-.9,17.39-3,39.53-.11A1.68,1.68,0,0,1,71,46V50.8a.08.08,0,0,1-.13.06c-.32-.33-1.1-1.11-1.1-.83,0,0-1.32,4.22-2,.27,0,0-1.06-.88-1.06,1.23,0,0-.7,2.54-1.14-.71,0,0-1-2.72-1,.71,0,0-.43,1.67-1-.44,0,0-1-3.25-1.41.7,0,0-1,1-1.23-1.67,0,0-.79.18-.52,1.41,0,0-.57.41-.64-.66s-1-1.24-.86.21-1,1.82-.94.07-.79-1.08-.91-.33-1.23,2.31-1.63.12-1,.23-1,.23S53.9,54,53.32,51s-.89.37-.89.37-.47,2.13-.82-.09-.86-1.33-1-.14-1.05,1.21-1.1-.12-.84-.81-.82,0-.67.87-.7-.14c0,0-.51-2-.77.24,0,0-.44,3-.77-.12,0,0-.37-2.36-1.09-.07,0,0-.87,2.71-1.31,0,0,0-.07-2.45-.86-.21,0,0-.73,1.77-1,.14,0,0-.46-1.94-.88.11,0,0-.91,2.48-1.38,0,0,0-.47-2.06-1,.28s-1.1,1-1.1-.1-.86-2.14-.91-.25-1.05,2.07-1.05,0c0,0-.39-2.19-1,.21s-1,0-1-.07-.49-1.73-.89-.12-.61,1-.68-.18-1-.66-.84.42-.42,3.24-.72.3-.89-.68-.89-.68-.32,1.66-.7,1.47-.42-2-.42-2l-.09-4A1.79,1.79,0,0,1,30,44.41Z"/><path class="cls-4" d="M30.85,41h38A2.19,2.19,0,0,1,71,43.16h0a1.28,1.28,0,0,1-1.33,1.28c-6-.24-30.34-1.12-39.6.08a1.27,1.27,0,0,1-1.43-1.33v-.13A2.19,2.19,0,0,1,30.85,41Z"/><path d="M41.53,28.85c-.68-.28-8.62,17.16-8.59,27a1.71,1.71,0,0,0,.34.88c1,1.56,4.46,6.6,3.29,0,0,0,.13-1.16-1.61-3.69a3,3,0,0,1-.34-1.67C34.53,43.8,42.2,29.13,41.53,28.85Z"/><path d="M50.71,29.85c-.68-.28-8.62,17.16-8.58,27a1.62,1.62,0,0,0,.33.88c1,1.56,4.46,6.6,3.29,0,0,0,.13-1.16-1.6-3.69a2.89,2.89,0,0,1-.35-1.67C43.71,44.8,51.38,30.13,50.71,29.85Z"/><path d="M59.67,28.85c-.68-.28-8.61,17.16-8.58,27a1.7,1.7,0,0,0,.33.88c1,1.56,4.47,6.6,3.29,0,0,0,.13-1.16-1.6-3.69a2.81,2.81,0,0,1-.34-1.67C52.68,43.8,60.34,29.13,59.67,28.85Z"/><path d="M69.33,29.85c-.67-.28-8.61,17.16-8.58,27a1.71,1.71,0,0,0,.34.88c1,1.56,4.46,6.6,3.28,0,0,0,.14-1.16-1.6-3.69a3,3,0,0,1-.34-1.67C62.34,44.8,70,30.13,69.33,29.85Z"/></svg>