<svg id="Layer_1" data-name="Layer 1" xmlns="http://www.w3.org/2000/svg" viewBox="0 0 100 100"><defs><style>.cls-1{fill:#94d2ce;stroke:#000;stroke-miterlimit:10;}.cls-2{fill:#f37979;}.cls-3{fill:#f2f2f2;}</style></defs><title>Tendons</title><circle class="cls-1" cx="50" cy="50" r="34.23"/><path class="cls-2" d="M42.52,71.15a65.85,65.85,0,0,0,1.55,7.29h-3c.22-.79.52-2.1.86-3.74C42.11,73.73,42.34,72.49,42.52,71.15Z"/><path class="cls-2" d="M40.94,64a5.14,5.14,0,0,1-.76-.94.74.74,0,0,1-.08-.15c0-.06,0-.11-.07-.23l0-.27,0-.16a5.41,5.41,0,0,1,1-1.69l.33.25c.44.33.86.65,1.23,1l.11.11a5,5,0,0,1,.4.4l.17.19,0,0,.23.32a7.68,7.68,0,0,1,.73,1.13l-.93.87a.81.81,0,0,0-.16.16l-.07.12-.09.21a3.4,3.4,0,0,0-.33.84c-.06.21.26.69-.16.66s-.09-.42-.15-.61a3.77,3.77,0,0,0-.29-.77c0-.07-.07-.15-.15-.31a7.2,7.2,0,0,0-.67-.87Z"/><path class="cls-2" d="M56.45,78.64c.26-1.53.78-4.82,1.11-7.63.15,1.45.31,2.77.45,3.81.24,1.67.46,3,.62,3.82Z"/><path class="cls-2" d="M55.88,63.8a8.69,8.69,0,0,1,1.57-2c.38-.34.79-.66,1.23-1l.33-.25a5.6,5.6,0,0,1,.52.73,4.15,4.15,0,0,1,.42.85l0,.29c0,.06,0,.12,0,.19a1.31,1.31,0,0,1-.17.47,5.54,5.54,0,0,1-.76.92l-.26.28a6.75,6.75,0,0,0-.69.9l-.11.23a3.05,3.05,0,0,0-.3.79c-.07.21.41.54-.16.64s-.11-.48-.19-.74a2.36,2.36,0,0,0-.2-.57L57,65.11,56.89,65l-.08-.1Z"/><path class="cls-3" d="M40.38,52l.21-.1.19,0a2,2,0,0,1,.32,0h.15a5,5,0,0,1,1.73.5,3.73,3.73,0,0,0,3.58.17l.35-.18c.15-.07.31-.16.53-.25a2.17,2.17,0,0,1,.46-.15l.17,0,.18,0h0a1.74,1.74,0,0,1,.84.37,3.5,3.5,0,0,0,.38.23l0,0a.73.73,0,0,0,.19.07l.24,0h.14a1.94,1.94,0,0,0,.72-.34c.12-.08.25-.16.4-.24a1.69,1.69,0,0,1,.27-.1l-.15-.48.27.45a2.16,2.16,0,0,1,1,.2l.5.25.33.17a4.43,4.43,0,0,0,.79.31,1.4,1.4,0,0,0,.4.07l.26,0h.17l.18,0a6.51,6.51,0,0,0,1.84-.57,4.74,4.74,0,0,1,1.67-.48H59l.1,0,.12,0a1.44,1.44,0,0,1,.41.15,1.64,1.64,0,0,1,.6.6,6.73,6.73,0,0,1,.64,3.31V56a3.57,3.57,0,0,1-.39,1.61l0,.06A8,8,0,0,1,59.18,59l-1,.82c-.5.39-1,.75-1.45,1.16a10.26,10.26,0,0,0-1.94,2.62s0,0,0,0l-.08.21a24.58,24.58,0,0,0-.92,2.41,20,20,0,0,0-.59,5.13,27.07,27.07,0,0,0,.32,4c.13.88.27,1.6.38,2.15a.53.53,0,0,1-.52.64H46.6a.53.53,0,0,1-.52-.64c.11-.55.25-1.28.38-2.15a27.19,27.19,0,0,0,.32-4,20.37,20.37,0,0,0-.59-5.13l-.44-1.39-.21-.47c-.1-.24-.22-.51-.24-.57l0,0-.12-.23a8,8,0,0,0-.86-1.36l-.29-.4h0l0-.06h0l0,0-.12-.13c-.14-.16-.3-.31-.46-.47L43.22,61c-.44-.39-.9-.74-1.4-1.12l-1-.82a7.63,7.63,0,0,1-1.28-1.42,3.34,3.34,0,0,1-.31-.79,4.07,4.07,0,0,1-.1-.81,10.56,10.56,0,0,1,.1-1.78,4.52,4.52,0,0,1,.52-1.69A1.67,1.67,0,0,1,40.38,52Z"/><path class="cls-3" d="M43.27,49.65a5.83,5.83,0,0,1-3-2.15A2.06,2.06,0,0,1,40,47l-.15-.27a3.43,3.43,0,0,1-.33-.76l-.09-.29c-.06-.21-.12-.41-.16-.57l-.08-.88a3.51,3.51,0,0,1,.28-1.69,4.38,4.38,0,0,1,1-1.33,16.89,16.89,0,0,1,1.43-1.16c.41-.31.81-.61,1.18-.94a10.88,10.88,0,0,0,3.08-5.29,20.19,20.19,0,0,0,.63-5.18,31,31,0,0,0-.32-4c-.16-1.06-.32-1.89-.45-2.48a11.15,11.15,0,0,0,3.9.68A12.52,12.52,0,0,0,54,22.14c-.13.59-.3,1.43-.46,2.5a30.71,30.71,0,0,0-.32,4,20.3,20.3,0,0,0,.62,5.15,9.41,9.41,0,0,0,.46,1.39,6.47,6.47,0,0,0,.51,1.13l.12.22a4.84,4.84,0,0,0,.62,1l.26.37a6.44,6.44,0,0,0,1.12,1.21c.37.33.77.63,1.18.94a16.89,16.89,0,0,1,1.43,1.16,4,4,0,0,1,1,1.33,3.57,3.57,0,0,1,.27.88.82.82,0,0,1,0,.21c0,.06,0,.12,0,.15V44l0,.26a6,6,0,0,1-4.13,5.43,5.17,5.17,0,0,1-1.37.26l-.39,0a2.87,2.87,0,0,1-1.74-.63c-.29-.21-.55-.43-.81-.65A3.89,3.89,0,0,0,50,47.44a3.88,3.88,0,0,0-2.35,1.25l-.8.65a3.59,3.59,0,0,1-.84.46,1.84,1.84,0,0,1-.46.13.83.83,0,0,1-.26,0H45.1l-.33,0A5.32,5.32,0,0,1,43.27,49.65Z"/><path d="M57.49,72.9a22.54,22.54,0,0,0-.77,5.29c.16.31,1.3.14,1.51,0s-.14-1.49-.31-2.65C57.82,74.82,57.71,72.93,57.49,72.9Zm-1.36-9.51a.65.65,0,0,0,.06.77l.62.72.08.1.07.13.18.38a2.36,2.36,0,0,1,.2.57c.08.26,0,.7.19.74s.09-.43.16-.64a3.05,3.05,0,0,1,.3-.79l.11-.23a6.75,6.75,0,0,1,.69-.9l.26-.28a5.54,5.54,0,0,0,.76-.92,1.31,1.31,0,0,0,.17-.47c0-.07,0-.13,0-.19l0-.29a4.15,4.15,0,0,0-.42-.85,5.6,5.6,0,0,0-.52-.73l-.33.25c-.44.33-.85.65-1.23,1A8,8,0,0,0,56.13,63.39ZM43.28,78.19c.27-.36-.3-5.39-.78-5.17s-.24,1.48-.55,2.54a6.8,6.8,0,0,0-.18,2.63C42,78.58,43.1,78.43,43.28,78.19ZM40.59,51.87l-.21.1a1.67,1.67,0,0,0-.6.61,4.52,4.52,0,0,0-.52,1.69,10.56,10.56,0,0,0-.1,1.78,4.07,4.07,0,0,0,.1.81,3.34,3.34,0,0,0,.31.79,7.63,7.63,0,0,0,1.28,1.42l1,.83A16.28,16.28,0,0,1,43.22,61l.12.11c.16.16.32.31.46.47l.12.13,0,0h0l0,.06h0l.29.4a8,8,0,0,1,.86,1.36l.12.23,0,0c0,.06.14.33.24.57l.21.47.44,1.39a20.37,20.37,0,0,1,.59,5.13,27.19,27.19,0,0,1-.32,4c-.12.8-.24,1.48-.35,2a.65.65,0,0,0,.65.78h6.48a.65.65,0,0,0,.65-.78c-.11-.53-.23-1.2-.35-2a27.07,27.07,0,0,1-.32-4,20,20,0,0,1,.59-5.13,24.58,24.58,0,0,1,.92-2.41l.08-.21s0,0,0,0A10.26,10.26,0,0,1,56.77,61c.47-.41.95-.77,1.45-1.15l1-.83a9.13,9.13,0,0,0,1.22-1.33l0-.08a3.53,3.53,0,0,0,.39-1.6v-.15a6.73,6.73,0,0,0-.64-3.31,1.64,1.64,0,0,0-.6-.6,1.44,1.44,0,0,0-.41-.15l-.12,0-.1,0h-.23a4.74,4.74,0,0,0-1.67.48,6.51,6.51,0,0,1-1.84.57l-.18,0h-.17l-.26,0a1.4,1.4,0,0,1-.4-.07,4.43,4.43,0,0,1-.79-.31l-.33-.17L52.6,52a2.16,2.16,0,0,0-1-.2l-.27-.45.27.45a3.56,3.56,0,0,0-.39.13c-.15.08-.28.16-.4.24a1.94,1.94,0,0,1-.72.34H50l-.24,0a.73.73,0,0,1-.19-.07l0,0a3.5,3.5,0,0,1-.38-.23,1.74,1.74,0,0,0-.84-.37h0l-.18,0-.17,0a2.17,2.17,0,0,0-.46.15c-.22.09-.38.18-.53.25l-.35.18A3.73,3.73,0,0,1,43,52.29a5,5,0,0,0-1.73-.5H41.1a2,2,0,0,0-.32,0ZM40.18,63a5.14,5.14,0,0,0,.76.94l.27.28a7.2,7.2,0,0,1,.67.87c.08.16.11.24.15.31a3.77,3.77,0,0,1,.29.77c.06.19-.13.58.15.61s.1-.45.16-.66a3.4,3.4,0,0,1,.33-.84l.09-.21.07-.12a.81.81,0,0,1,.16-.16l.55-.51a.67.67,0,0,0,.1-.85c-.14-.21-.29-.42-.45-.64l-.23-.32,0,0a.55.55,0,0,1,.06-.66l.48.82c-.19.18-.72-.36-.54-.16l-.17-.19a5,5,0,0,0-.4-.4l-.11-.11c-.37-.33-.79-.65-1.23-1L41,60.51a5.41,5.41,0,0,0-1,1.69l0,.16,0,.27c0,.12.06.17.07.23A.74.74,0,0,0,40.18,63ZM39,62.27l0-.29a6.21,6.21,0,0,1,1.16-2.11h0a9,9,0,0,1-1.54-1.73,4.25,4.25,0,0,1-.4-1,4.57,4.57,0,0,1-.13-1,12.84,12.84,0,0,1,.11-2,5.72,5.72,0,0,1,.65-2.06,2.48,2.48,0,0,1,1.37-1.14l.28-.08a4.39,4.39,0,0,1,.52-.05h.16a5.84,5.84,0,0,1,2.06.55c1.16.53,1.95.72,2.79.24l.34-.18c.18-.09.36-.19.57-.28a3.55,3.55,0,0,1,.63-.21,1.21,1.21,0,0,1,.27,0l.18,0h0l.16,0h.11a2.51,2.51,0,0,1,1.26.49l.08.05a2.14,2.14,0,0,0,.28.16h0a2,2,0,0,0,.27-.15,4.52,4.52,0,0,1,.52-.32,2.3,2.3,0,0,1,.42-.16,1.29,1.29,0,0,1,.26-.06h.12a2.82,2.82,0,0,1,1.4.28,5,5,0,0,1,.57.28l.3.15a2.79,2.79,0,0,0,.64.25l.11,0s0,0,.07,0l.21,0h0l.22,0a5.11,5.11,0,0,0,1.48-.48,6.08,6.08,0,0,1,2.13-.58h.37a1,1,0,0,1,.32.05,1.89,1.89,0,0,1,.65.23,2.86,2.86,0,0,1,1,1,7.78,7.78,0,0,1,.77,3.8V56a4.44,4.44,0,0,1-.53,2.12,9,9,0,0,1-1.54,1.73h0a7.09,7.09,0,0,1,.6.84,5.09,5.09,0,0,1,.54,1.16l.08.45a.68.68,0,0,1,0,.2v.11a.41.41,0,0,1,0,.11,2.18,2.18,0,0,1-.3.82,5.89,5.89,0,0,1-.88,1.08l-.25.27a5.28,5.28,0,0,0-.56.72l-.08.18a2.46,2.46,0,0,0-.23.59,5.48,5.48,0,0,0-.21.95,8.47,8.47,0,0,0-.1,1c0,.59-.05,1.21,0,1.93s0,1.16.09,1.71v.16c.1,1.26.25,2.42.37,3.29.27,1.9.53,3.18.53,3.19a.51.51,0,0,1-.49.6h-2.7a.49.49,0,0,1-.38-.18.55.55,0,0,1-.12-.33s0-.05,0-.07.86-5.06,1-7.57c0-.54.07-1.23.05-1.89a7.32,7.32,0,0,0,0-.94,5.63,5.63,0,0,0-.1-.93,4.85,4.85,0,0,0-.2-1,1.34,1.34,0,0,0-.14-.39l-.16-.35-.66-.77c-.25.62-.56,1.4-.65,1.73a19.38,19.38,0,0,0-.55,4.88,26.89,26.89,0,0,0,.31,3.84,27.85,27.85,0,0,0,.66,3.29.78.78,0,0,1,0,.14.47.47,0,0,1-.1.3.48.48,0,0,1-.4.2H45.29a.48.48,0,0,1-.4-.2.47.47,0,0,1-.1-.3.78.78,0,0,1,0-.14,27.85,27.85,0,0,0,.66-3.29,26.89,26.89,0,0,0,.31-3.84,20.11,20.11,0,0,0-.54-4.85s0,0,0-.06l-.4-1.25-.17-.38-.68.63,0,0-.08.17a2.69,2.69,0,0,0-.26.64,5,5,0,0,0-.19,1,12.83,12.83,0,0,0-.13,1.89c0,.65,0,1.3.06,1.89a57.94,57.94,0,0,0,1,7.48s0,.07,0,.1a.59.59,0,0,1,0,.13.54.54,0,0,1-.49.39h-2.7a.51.51,0,0,1-.49-.6s.26-1.29.53-3.19c.12-.87.27-2,.37-3.3V72c0-.56.08-1.14.09-1.73s0-1.35,0-1.92a7.3,7.3,0,0,0-.1-.94,4.75,4.75,0,0,0-.2-.94,2.41,2.41,0,0,0-.22-.59c0-.09-.09-.18-.13-.28a5.67,5.67,0,0,0-.53-.66l-.26-.28a6.32,6.32,0,0,1-.89-1.1,1.4,1.4,0,0,1-.19-.44.8.8,0,0,1-.1-.41l0-.29A.49.49,0,0,1,39,62.27Z"/><path d="M40.3,47.5a5.83,5.83,0,0,0,3,2.15,5.32,5.32,0,0,0,1.5.29l.33,0h.16a.83.83,0,0,0,.26,0A1.84,1.84,0,0,0,46,49.8a3.59,3.59,0,0,0,.84-.46l.8-.65A3.88,3.88,0,0,1,50,47.44a3.89,3.89,0,0,1,2.41,1.25c.26.22.52.44.81.65a2.87,2.87,0,0,0,1.74.63l.39,0a5.17,5.17,0,0,0,1.37-.26,6,6,0,0,0,4.13-5.43l0-.26v-.19s0-.09,0-.15a.82.82,0,0,0,0-.21,3.57,3.57,0,0,0-.27-.88,4,4,0,0,0-1-1.33,16.89,16.89,0,0,0-1.43-1.16c-.41-.31-.81-.61-1.18-.94a6.44,6.44,0,0,1-1.12-1.21l-.26-.37a4.84,4.84,0,0,1-.62-1l-.12-.22a6.47,6.47,0,0,1-.51-1.13,9.41,9.41,0,0,1-.46-1.39,20.3,20.3,0,0,1-.62-5.15,30.71,30.71,0,0,1,.32-4c.1-.64.2-1.21.29-1.68a.5.5,0,0,0-.61-.58,12.31,12.31,0,0,1-3.29.45,11.57,11.57,0,0,1-3.12-.42.49.49,0,0,0-.61.57c.09.46.18,1,.28,1.65a31,31,0,0,1,.32,4,20.19,20.19,0,0,1-.63,5.18,10.88,10.88,0,0,1-3.08,5.29c-.37.33-.77.63-1.18.94a16.89,16.89,0,0,0-1.43,1.16,4.38,4.38,0,0,0-1,1.33,3.51,3.51,0,0,0-.28,1.69l.08.88c0,.16.1.36.16.57l.09.29a3.43,3.43,0,0,0,.33.76L40,47A2.06,2.06,0,0,0,40.3,47.5Zm-1.75-5.36a5.26,5.26,0,0,1,1.24-1.65c.5-.47,1-.85,1.5-1.23a12.88,12.88,0,0,0,1.12-.89,9.93,9.93,0,0,0,2.79-4.8,19.57,19.57,0,0,0,.59-4.92,29,29,0,0,0-.31-3.87,27.26,27.26,0,0,0-.67-3.33.49.49,0,0,1,.69-.59,10.33,10.33,0,0,0,4.42,1,11,11,0,0,0,4.56-1,.52.52,0,0,1,.55.06.51.51,0,0,1,.16.53,27.26,27.26,0,0,0-.67,3.33,29,29,0,0,0-.31,3.88,19.43,19.43,0,0,0,.59,4.91,7.79,7.79,0,0,0,.4,1.21l0,.12a6.26,6.26,0,0,0,.44,1l.14.27a5.32,5.32,0,0,0,.52.82c.1.13.2.27.29.41a5.69,5.69,0,0,0,1,1c.35.31.73.6,1.12.89s1,.76,1.5,1.22a5.21,5.21,0,0,1,1.24,1.67,4.55,4.55,0,0,1,.33,1.08,2.2,2.2,0,0,1,0,.36v.12c0,.15,0,.21,0,.32l0,.27A6.86,6.86,0,0,1,57,50.61a5.61,5.61,0,0,1-1.59.32L55,51h0a4,4,0,0,1-2.4-.82c-.31-.22-.59-.46-.87-.7a3.23,3.23,0,0,0-1.71-1,3.15,3.15,0,0,0-1.75,1c-.28.23-.56.48-.87.7a4.53,4.53,0,0,1-1,.58,2.85,2.85,0,0,1-.65.18,2.17,2.17,0,0,1-.4.05H45l-.37,0a6.16,6.16,0,0,1-1.75-.34,6.75,6.75,0,0,1-3.39-2.46,3.13,3.13,0,0,1-.43-.66l-.11-.2a4.1,4.1,0,0,1-.44-1L38.47,46a4.79,4.79,0,0,1-.19-.72l-.1-.93A4.46,4.46,0,0,1,38.55,42.14Z"/></svg>