<svg id="Layer_1" data-name="Layer 1" xmlns="http://www.w3.org/2000/svg" viewBox="0 0 443 429.51"><defs><style>.cls-1{fill:#d3e2df;}.cls-2{fill:#f3f3f3;}.cls-3{fill:#010101;}.cls-4{fill:#c8cece;}.cls-5{fill:#00a99b;}.cls-6{fill:#e25a64;}.cls-7{fill:#bbc3c4;}.cls-8{fill:#059684;}.cls-9{fill:#f4ea09;}.cls-10{fill:#e5d726;}</style></defs><title>icon 3</title><path class="cls-1" d="M413,210.07c-18.42-23.81-45.25-53.63-77-84V310.89q2.12-.94,4.24-1.83c22.39-9.66,46.41-15,66.55-19.1,19.36-4.57,33.74-8.15,35.86-19.91C445.06,258.65,435.14,238.73,413,210.07Z"/><path class="cls-1" d="M85.83,52.09H246.32c-19.51-13.3-39.5-24.84-59.5-33.37C142.15-1.74,102.19-4.69,71.82,6.27,41.25,17,20.2,41.11,9.32,69.39c-23.21,58.73.24,124,34,182.66,12,19.79,22.65,38.61,32.21,56.08V62.36A10.28,10.28,0,0,1,85.83,52.09Z"/><path class="cls-1" d="M122.36,393.18c20,31.72,36.24,44.59,65,30.88,24.3-11.2,48.54-40,80.18-67.83H101.41C109,370.34,115.88,382.79,122.36,393.18Z"/><path class="cls-2" d="M331.73,62.36a6,6,0,0,0-6-6H85.83a6,6,0,0,0-6,6V346a6,6,0,0,0,6,6h239.9a6,6,0,0,0,6-6ZM108,72.49c0-1.07,1.32-1.93,3-1.93H243.5c1.63,0,2.95.86,2.95,1.93v5.24c0,1.06-1.32,1.93-2.95,1.93H111c-1.63,0-3-.87-3-1.93Zm6.75,267.84a7.29,7.29,0,0,1-3.13-.71L95.1,331.69A7.29,7.29,0,0,1,91.68,322l18.38-38.36h-2.48c-1.75,0-3.17-.86-3.17-1.93v-5.24c0-1.06,1.42-1.93,3.17-1.93h6.85l14.89-31.08a80.24,80.24,0,0,1,6.39-133.27H114.64c-2.32,0-4.19-.64-4.19-1.42v-3.84c0-.79,1.87-1.43,4.19-1.43h35a80.39,80.39,0,0,1,54.89,0H303c2.32,0,4.2.64,4.2,1.43v3.84c0,.78-1.88,1.42-4.2,1.42H218.5a81,81,0,0,1,24.65,23.16h72a1.84,1.84,0,0,1,1.73,1.94v5.23a1.83,1.83,0,0,1-1.73,1.93H248.61a81.15,81.15,0,0,1,4.63,11h63a1.85,1.85,0,0,1,1.73,1.94v5.23a1.85,1.85,0,0,1-1.73,1.94H255.71a79.7,79.7,0,0,1,1.69,16.38h55.7a1.85,1.85,0,0,1,1.74,1.94v5.23A1.85,1.85,0,0,1,313.1,188H256.89a79.63,79.63,0,0,1-2.43,12.52H315.2a1.84,1.84,0,0,1,1.73,1.94v5.23a1.83,1.83,0,0,1-1.73,1.93H251.31a80.16,80.16,0,0,1-6.07,11.76h71.63a2.05,2.05,0,0,1,2.16,1.93v5.23a2.06,2.06,0,0,1-2.16,1.94H238.63a80.22,80.22,0,0,1-79.43,26.74l-8.28,17.29H297.59c1.75,0,3.17.87,3.17,1.93v5.24c0,1.07-1.42,1.93-3.17,1.93h-151L121.36,336.2A7.31,7.31,0,0,1,114.77,340.33Zm33.63-38v-5.24c0-1.07,1.45-1.93,3.23-1.93h145c1.79,0,3.23.86,3.23,1.93v5.24c0,1.06-1.44,1.93-3.23,1.93h-145C149.85,304.26,148.4,303.39,148.4,302.33Z"/><path class="cls-2" d="M134,183.16l-7.16-12.54a3.52,3.52,0,1,1,6.11-3.5l2.44,4.26A3.52,3.52,0,0,0,141,172l6.12-6.53a5.32,5.32,0,0,0-4.19-2H130.6a5.33,5.33,0,0,0-5.33,5.33v12.33a5.33,5.33,0,0,0,5.33,5.33h12.33a5.33,5.33,0,0,0,5.34-5.33v-6.55l-8.66,9.23A3.52,3.52,0,0,1,134,183.16Z"/><path class="cls-2" d="M172.4,186.32v-5.23c0-1.07.55-1.94,1.24-1.94h60.82a1.79,1.79,0,0,1,.24-.12V179a57.58,57.58,0,0,0-2.5-16.8H182c-.69,0-1.26-.86-1.26-1.93V155c0-1.07.57-1.94,1.26-1.94h46.51a57.14,57.14,0,0,0-6.2-9.71H192.75c-.58,0-1.06-.87-1.06-1.94v-5.23c0-1.07.48-1.94,1.06-1.94h20.6a57.53,57.53,0,0,0-87.83,19.14H153a5.29,5.29,0,0,1,3.88,1.69l8.57-9.14a3.52,3.52,0,0,1,5.14,4.81l-12.26,13.08v27.44a5.33,5.33,0,0,1-5.33,5.33H122.28a57.59,57.59,0,0,0,80,34.17h-11.6c-.72,0-1.3-.87-1.3-1.94v-5.23c0-1.07.58-1.93,1.3-1.93h25.05a58.18,58.18,0,0,0,9.8-11.54H186.79c-.63,0-1.14-.87-1.14-1.94v-5.23c0-1.07.51-1.93,1.14-1.93H230.3a56.93,56.93,0,0,0,3.64-12.75h-60.3C173,188.26,172.4,187.39,172.4,186.32Z"/><path class="cls-3" d="M336,62.36a10.29,10.29,0,0,0-10.27-10.27H85.83A10.28,10.28,0,0,0,75.57,62.36V346a10.27,10.27,0,0,0,10.26,10.27h239.9A10.28,10.28,0,0,0,336,346V62.36ZM325.73,352H85.83a6,6,0,0,1-6-6V62.36a6,6,0,0,1,6-6h239.9a6,6,0,0,1,6,6V346A6,6,0,0,1,325.73,352Z"/><path class="cls-4" d="M299.87,302.33v-5.24c0-1.07-1.44-1.93-3.23-1.93h-145c-1.78,0-3.23.86-3.23,1.93v5.24c0,1.06,1.45,1.93,3.23,1.93h145C298.43,304.26,299.87,303.39,299.87,302.33Z"/><path class="cls-4" d="M114.64,103.48c-2.32,0-4.19.64-4.19,1.43v3.84c0,.78,1.87,1.42,4.19,1.42h21.07a80.27,80.27,0,0,1,13.95-6.69Z"/><path class="cls-4" d="M303,110.17c2.32,0,4.2-.64,4.2-1.42v-3.84c0-.79-1.88-1.43-4.2-1.43H204.55a79.92,79.92,0,0,1,13.95,6.69Z"/><path class="cls-4" d="M111,79.66H243.5c1.63,0,2.95-.87,2.95-1.93V72.49c0-1.07-1.32-1.93-2.95-1.93H111c-1.63,0-3,.86-3,1.93v5.24C108,78.79,109.34,79.66,111,79.66Z"/><path class="cls-4" d="M297.59,283.62c1.75,0,3.17-.86,3.17-1.93v-5.24c0-1.06-1.42-1.93-3.17-1.93H150.92l-4.37,9.1Z"/><path class="cls-4" d="M107.58,274.52c-1.75,0-3.17.87-3.17,1.93v5.24c0,1.07,1.42,1.93,3.17,1.93h2.48l4.37-9.1Z"/><path class="cls-4" d="M315.2,142.43a1.83,1.83,0,0,0,1.73-1.93v-5.23a1.84,1.84,0,0,0-1.73-1.94h-72a80.27,80.27,0,0,1,5.46,9.1Z"/><path class="cls-4" d="M316.25,162.52a1.85,1.85,0,0,0,1.73-1.94v-5.23a1.85,1.85,0,0,0-1.73-1.94h-63a78.83,78.83,0,0,1,2.47,9.11Z"/><path class="cls-4" d="M316.87,230.49a2.06,2.06,0,0,0,2.16-1.94v-5.23a2.05,2.05,0,0,0-2.16-1.93H245.24a80,80,0,0,1-6.61,9.1Z"/><path class="cls-4" d="M315.2,209.63a1.83,1.83,0,0,0,1.73-1.93v-5.23a1.84,1.84,0,0,0-1.73-1.94H254.46a80.08,80.08,0,0,1-3.15,9.1Z"/><path class="cls-4" d="M256.89,188H313.1a1.85,1.85,0,0,0,1.74-1.94v-5.23a1.85,1.85,0,0,0-1.74-1.94H257.4v0A79.86,79.86,0,0,1,256.89,188Z"/><path class="cls-4" d="M234.46,179.15h.23s0-.08,0-.12A1.79,1.79,0,0,0,234.46,179.15Z"/><path class="cls-5" d="M107.57,331.55l38-78.75a80.7,80.7,0,0,1-12.72-6.87L95.53,323.82a3,3,0,0,0,1.42,4l10.44,5A1.56,1.56,0,0,1,107.57,331.55Z"/><path class="cls-3" d="M150.92,274.52l8.28-17.29c-1.13-.26-2.26-.54-3.37-.85l-38.65,79.4a1.87,1.87,0,0,1-2.5.88l-6.55-3.16a1.43,1.43,0,0,1-.74-.65l-10.44-5a3,3,0,0,1-1.42-4l37.33-77.89q-1.8-1.2-3.54-2.49l-14.89,31.08-4.37,9.1L91.68,322a7.29,7.29,0,0,0,3.42,9.71l16.54,7.93a7.3,7.3,0,0,0,9.72-3.42l25.19-52.58Z"/><path class="cls-6" d="M191.69,136.17v5.23c0,1.07.48,1.94,1.06,1.94h29.58a57.74,57.74,0,0,0-9-9.11h-20.6C192.17,134.23,191.69,135.1,191.69,136.17Z"/><path class="cls-6" d="M180.76,155v5.23c0,1.07.57,1.93,1.26,1.93H232.2a57.7,57.7,0,0,0-3.67-9.1H182C181.33,153.05,180.76,153.92,180.76,155Z"/><path class="cls-6" d="M189.37,223.58v5.23c0,1.07.58,1.94,1.3,1.94h11.6a58.21,58.21,0,0,0,13.45-9.1H190.67C190,221.65,189.37,222.51,189.37,223.58Z"/><path class="cls-6" d="M173.64,179.15c-.69,0-1.24.87-1.24,1.94v5.23c0,1.07.55,1.94,1.24,1.94h60.3a57,57,0,0,0,.75-9.11H173.64Z"/><path class="cls-6" d="M185.65,202.94v5.23c0,1.07.51,1.94,1.14,1.94h38.73a57.53,57.53,0,0,0,4.78-9.1H186.79C186.16,201,185.65,201.87,185.65,202.94Z"/><path class="cls-7" d="M158.37,191.25V163.81l-10.1,10.78v6.55a5.33,5.33,0,0,1-5.34,5.33H130.6a5.33,5.33,0,0,1-5.33-5.33V168.81a5.33,5.33,0,0,1,5.33-5.33h12.33a5.32,5.32,0,0,1,4.19,2l9.8-10.45a5.29,5.29,0,0,0-3.88-1.69H125.52a57.46,57.46,0,0,0-3.24,43.21H153A5.33,5.33,0,0,0,158.37,191.25Z"/><path class="cls-8" d="M145.58,252.8l-38,78.75a1.56,1.56,0,0,0-.18,1.3,1.43,1.43,0,0,0,.74.65l6.55,3.16a1.87,1.87,0,0,0,2.5-.88l38.65-79.4A78.13,78.13,0,0,1,145.58,252.8Z"/><path class="cls-3" d="M141,172a3.52,3.52,0,0,1-5.63-.66l-2.44-4.26a3.52,3.52,0,1,0-6.11,3.5L134,183.16a3.52,3.52,0,0,0,5.63.66l8.66-9.23,10.1-10.78,12.26-13.08a3.52,3.52,0,0,0-5.14-4.81l-8.57,9.14-9.8,10.45Z"/><path class="cls-9" d="M177.11,102.92a76,76,0,1,0,76,76A76.11,76.11,0,0,0,177.11,102.92Zm64.55,112.63a74.52,74.52,0,0,1-92.1,32.36,5,5,0,0,1-2.64-6.85,5.08,5.08,0,0,1,6.45-2.49,64.44,64.44,0,0,0,79.49-27.92,5.14,5.14,0,0,1,6.58-2.09h0A5,5,0,0,1,241.66,215.55ZM239,179a61.87,61.87,0,1,1-61.86-61.86A61.93,61.93,0,0,1,239,179Z"/><path class="cls-3" d="M132.86,245.93a80.7,80.7,0,0,0,12.72,6.87,78.13,78.13,0,0,0,10.25,3.58c1.11.31,2.24.59,3.37.85A80.28,80.28,0,0,0,257.4,179v0a79.7,79.7,0,0,0-1.69-16.38,78.83,78.83,0,0,0-2.47-9.11,81.15,81.15,0,0,0-4.63-11,80.29,80.29,0,1,0-119.29,101Q131.06,244.73,132.86,245.93Zm120.27-67a76,76,0,1,1-76-76A76.11,76.11,0,0,1,253.13,179Z"/><path class="cls-3" d="M177.11,117.09A61.86,61.86,0,1,0,239,179,61.93,61.93,0,0,0,177.11,117.09Zm56.83,71.17A56.93,56.93,0,0,1,230.3,201a57.53,57.53,0,0,1-4.78,9.1,57.88,57.88,0,0,1-23.25,20.64A57.61,57.61,0,1,1,234.7,179V179s0,.08,0,.12A57,57,0,0,1,233.94,188.26Z"/><path class="cls-10" d="M239.44,208.56h0a5.14,5.14,0,0,0-6.58,2.09,64.44,64.44,0,0,1-79.49,27.92,5.08,5.08,0,0,0-6.45,2.49,5,5,0,0,0,2.64,6.85,74.52,74.52,0,0,0,92.1-32.36A5,5,0,0,0,239.44,208.56Z"/></svg>