<svg id="Layer_1" data-name="Layer 1" xmlns="http://www.w3.org/2000/svg" viewBox="0 0 500 500"><defs><style>.cls-1{fill:#d3e2df;}.cls-2{fill:#0e9385;}.cls-3{fill:#010101;}.cls-4{fill:#00a99b;}.cls-5{fill:#0c8d7f;}.cls-6{fill:#f0efef;}.cls-7{fill:#fdfeff;}.cls-8{fill:#737374;}.cls-9{fill:#e25a64;}.cls-10{fill:#b5b6b6;}.cls-11{fill:#f4ea09;}.cls-12{fill:#d7ca26;}.cls-13{fill:#f3f3f3;}.cls-14{fill:#ce2e41;}</style></defs><title>icon-1</title><path class="cls-1" d="M87.34,380.62a8,8,0,0,1-5.7-3,7.9,7.9,0,0,1-1.6-6.16l39.35-219.95a7.92,7.92,0,0,1,7.67-6.61l23.8-.53-.13-11.18v-.07a6.06,6.06,0,0,1,6.17-5.94l2.72,0a6.06,6.06,0,0,1,5.94,6.14l.12,10.05c.26.19.51.39.76.6l34.25-.76-.15-12.08v-.07a6.07,6.07,0,0,1,6.17-5.94l2.72,0a6.08,6.08,0,0,1,5.95,6.14l.14,11.57,38.8-.87c.21-.22.42-.42.64-.62l-.14-11v-.07a6.07,6.07,0,0,1,6.06-5.94H261l2.73.05a6.08,6.08,0,0,1,5.94,6.14l.12,10.56c.19.16.37.33.55.5l40.13-.89-.12-10.35v-.07a6.06,6.06,0,0,1,6.05-5.94h.12l2.72.05a6.06,6.06,0,0,1,5.94,6.14l.12,9.84,29-.65C343.55,126.12,334,112,324.78,99.19c-12.49-16.31-24.16-29.43-41.54-34-17.12-4.77-40-1-68.75,12.92-28.52,13.81-63,37.84-97.35,70.23C83,180.52,49.06,221.11,27.55,264.58,4.93,307.19-3.47,347.34,1.28,376.7c4.59,29.69,22.33,48.59,48.17,56,47.32,14.5,117.83-11.54,188.66-41.65L87.34,380.62Z"/><path class="cls-1" d="M497.4,264.58c-9.29-18.3-45.23-36.76-81.57-64.38a349.15,349.15,0,0,1-40.49-35.95l33.2,135.3a65.65,65.65,0,0,1,20.89,17C482.6,297.88,508.71,286.38,497.4,264.58Z"/><path class="cls-2" d="M369.06,157.14v0a3.56,3.56,0,0,0-.86-1.63l-.51,137.89a65.73,65.73,0,0,1,11.21-1,64.85,64.85,0,0,1,24.54,4.81Z"/><path class="cls-3" d="M368.19,155.47a3.56,3.56,0,0,1,.86,1.63v0L403.43,297.2c1.74.72,3.45,1.5,5.11,2.35l-33.2-135.3-2-8.14a7.82,7.82,0,0,0-5.13-5.72Z"/><path class="cls-4" d="M363.81,147.63a3.45,3.45,0,0,0-1.05-2.49,3.52,3.52,0,0,0-2.5-1h-.08l-31.94.71a14.44,14.44,0,0,1,1.83,6.49h0a14.15,14.15,0,0,1-3,9.47,11.27,11.27,0,0,1-8.39,4.37h-.44c-6.4,0-11.76-5.68-12.06-12.88a14.55,14.55,0,0,1,1.46-7l-34.28.76a14.73,14.73,0,0,1,1.21,5.27,14.09,14.09,0,0,1-3,9.47,11.27,11.27,0,0,1-8.39,4.37h-.43c-6.4,0-11.77-5.68-12.06-12.88a14.53,14.53,0,0,1,.91-5.75l-32.85.73a14.61,14.61,0,0,1,1.68,6.23h0a14.16,14.16,0,0,1-3,9.47,11.29,11.29,0,0,1-8.39,4.36h-.44c-6.4,0-11.76-5.68-12.06-12.88a14.54,14.54,0,0,1,1.33-6.73l-28.12.62a14.7,14.7,0,0,1,1.4,5.66,14.17,14.17,0,0,1-3,9.48,11.29,11.29,0,0,1-8.39,4.36h-.44c-6.4,0-11.76-5.68-12.06-12.88a14.6,14.6,0,0,1,1.07-6.15l-21.09.47a3.54,3.54,0,0,0-3.43,2.95l-39.35,220a3.45,3.45,0,0,0,.71,2.68,3.55,3.55,0,0,0,2.55,1.34L324.1,392.57a64.59,64.59,0,0,1-8.56-20.15L105.38,358.34a2.21,2.21,0,0,1-2-2.35,2.37,2.37,0,0,1,.34-1,7.9,7.9,0,0,1-5.86-8.87l29.72-163.57a7.9,7.9,0,0,1,7.81-6.64h0l200.69.24h0a7.94,7.94,0,0,1,7.94,8.18l-.85,17.1a2.09,2.09,0,0,1,.21,1l-3.64,103.13a65,65,0,0,1,23.52-11.22Z"/><path class="cls-3" d="M218.71,147.27l32.85-.73a13.84,13.84,0,0,1,2.1-3.73c.21-.26.44-.5.66-.74l-38.8.87v.38A13.28,13.28,0,0,1,218.71,147.27Z"/><path class="cls-3" d="M169.69,148.36l28.12-.62a12.68,12.68,0,0,1,2.88-4v-.45l-34.25.76A13.55,13.55,0,0,1,169.69,148.36Z"/><path class="cls-3" d="M325.3,141.22a13.3,13.3,0,0,1,2.94,3.61l31.94-.71h.08a3.52,3.52,0,0,1,2.5,1,3.45,3.45,0,0,1,1.05,2.49l-.54,146.66q2.18-.54,4.41-.93l.51-137.89,0-5.08v-2.75a7.94,7.94,0,0,0-8.14-7.92l-5.79.12-29,.65Z"/><path class="cls-3" d="M273.34,146.05l34.28-.76a13.08,13.08,0,0,1,1.56-2.48,12.84,12.84,0,0,1,1.29-1.36v-.63l-40.13.89A13.66,13.66,0,0,1,273.34,146.05Z"/><path class="cls-3" d="M324.1,392.57,87.64,376.23a3.55,3.55,0,0,1-2.55-1.34,3.45,3.45,0,0,1-.71-2.68l39.35-219.95a3.54,3.54,0,0,1,3.43-2.95l21.09-.47a13.17,13.17,0,0,1,1.95-3.32c.21-.27.44-.51.67-.76v-.38l-23.8.53a7.92,7.92,0,0,0-7.67,6.61L80,371.47a7.9,7.9,0,0,0,1.6,6.16,8,8,0,0,0,5.7,3h0l150.77,10.43,89.28,6.17Q325.65,395,324.1,392.57Z"/><path class="cls-5" d="M343.18,201.41,338,306.89c.59-.47,1.17-.93,1.77-1.38l3.64-103.13A2.09,2.09,0,0,0,343.18,201.41Z"/><path class="cls-5" d="M105.14,355.22a8.07,8.07,0,0,1-1.47-.25,2.37,2.37,0,0,0-.34,1,2.21,2.21,0,0,0,2,2.35l210.16,14.08c-.26-1.08-.49-2.18-.69-3.29Z"/><path class="cls-6" d="M339.63,184.12a3.45,3.45,0,0,0-1-2.51,3.58,3.58,0,0,0-2.56-1.08h0l-200.7-.23a3.52,3.52,0,0,0-3.49,3L102.16,346.84a3.43,3.43,0,0,0,.72,2.66,3.57,3.57,0,0,0,2.56,1.32l208.77,13.85a63.3,63.3,0,0,1-.4-7.2c0-1.42.05-2.83.14-4.23a6.15,6.15,0,0,1-3.18.84l-27.32-.65a5.17,5.17,0,0,1-5.07-5.87l2.37-21.39a6.37,6.37,0,0,1,6.34-5.6l27.32.65a5.17,5.17,0,0,1,5.08,5.87l-.57,5.09A65.27,65.27,0,0,1,333.37,311ZM235.2,249.82l3.2-21.28a6.39,6.39,0,0,1,6.56-5.35l27.27,1.72a5.17,5.17,0,0,1,4.84,6.06l-3.2,21.28a6.39,6.39,0,0,1-6.56,5.35L240,255.88A5.16,5.16,0,0,1,235.2,249.82Zm-6.71,46.93,3.08-21.3a6.36,6.36,0,0,1,6.52-5.38l27.29,1.55a5.17,5.17,0,0,1,4.87,6L267.17,299a6.37,6.37,0,0,1-6.52,5.39l-27.29-1.55A5.17,5.17,0,0,1,228.49,296.75ZM153.41,318.2l-3.08,21.3a6.38,6.38,0,0,1-6.53,5.38l-27.28-1.55a5.18,5.18,0,0,1-4.88-6l3.08-21.3a6.38,6.38,0,0,1,6.53-5.38l27.28,1.55A5.18,5.18,0,0,1,153.41,318.2Zm6.76-46.81-3.08,21.3a6.36,6.36,0,0,1-6.52,5.38l-27.29-1.55a5.17,5.17,0,0,1-4.87-6l3.08-21.3A6.37,6.37,0,0,1,128,263.8l27.29,1.56A5.16,5.16,0,0,1,160.17,271.39Zm-5.43-38.79a5.38,5.38,0,0,1-5.19-6l.68-5.86a5.38,5.38,0,0,1,5.49-4.75l13.37.38,1.43-12.24a5.36,5.36,0,0,1,5.48-4.75l8.78.25a5.37,5.37,0,0,1,5.18,6l-1.31,11.3,13.06.37a5.37,5.37,0,0,1,5.18,6l-.68,5.86a5.37,5.37,0,0,1-5.49,4.75l-14-.4-1.42,12.24a5.37,5.37,0,0,1-5.49,4.75l-8.77-.25a5.38,5.38,0,0,1-5.19-6l1.32-11.3Zm53.44,88.71-3.08,21.3a6.36,6.36,0,0,1-6.52,5.39l-27.29-1.56a5.17,5.17,0,0,1-4.87-6l3.08-21.3a6.37,6.37,0,0,1,6.52-5.38l27.29,1.55A5.16,5.16,0,0,1,208.18,321.31Zm-2.83-20.12-27.29-1.55a5.16,5.16,0,0,1-4.87-6l3.08-21.3a6.36,6.36,0,0,1,6.52-5.39l27.29,1.55a5.17,5.17,0,0,1,4.87,6l-3.08,21.3A6.37,6.37,0,0,1,205.35,301.19Zm48.53,50-27.29-1.56a5.17,5.17,0,0,1-4.87-6l3.08-21.3a6.38,6.38,0,0,1,6.52-5.39l27.29,1.56a5.16,5.16,0,0,1,4.87,6l-3.08,21.3A6.38,6.38,0,0,1,253.88,351.15Zm70.82-71.07-2.37,21.4a6.37,6.37,0,0,1-6.35,5.59l-27.32-.65a5.16,5.16,0,0,1-5.07-5.86L286,279.17a6.37,6.37,0,0,1,6.35-5.6l27.32.65A5.16,5.16,0,0,1,324.7,280.08Zm5.21-47-2.37,21.39a6.37,6.37,0,0,1-6.34,5.6l-27.33-.65a5.17,5.17,0,0,1-5.07-5.87l2.38-21.39a6.37,6.37,0,0,1,6.34-5.6l27.32.65A5.17,5.17,0,0,1,329.91,233.08Z"/><path class="cls-3" d="M344,184.31a7.94,7.94,0,0,0-7.94-8.18h0l-200.69-.24h0a7.9,7.9,0,0,0-7.81,6.64L97.81,346.1a7.9,7.9,0,0,0,5.86,8.87,8.07,8.07,0,0,0,1.47.25l209.71,13.91c-.26-1.47-.48-2.95-.64-4.46L105.44,350.82a3.57,3.57,0,0,1-2.56-1.32,3.43,3.43,0,0,1-.72-2.66l29.71-163.58a3.52,3.52,0,0,1,3.49-3l200.7.23h0a3.58,3.58,0,0,1,2.56,1.08,3.45,3.45,0,0,1,1,2.51L333.37,311q2.2-2.17,4.61-4.12l5.2-105.48Z"/><path class="cls-7" d="M263.82,154.85h-.11l-2.72-.05a6,6,0,0,1-5.81-4.8,10.65,10.65,0,0,0-.13,2.12c.2,4.94,3.75,8.81,7.92,8.65A6.94,6.94,0,0,0,268.1,158a9.73,9.73,0,0,0,2-6.53,10.23,10.23,0,0,0-.31-2.1A6.07,6.07,0,0,1,263.82,154.85Z"/><path class="cls-3" d="M251.56,146.54a14.53,14.53,0,0,0-.91,5.75c.29,7.2,5.66,12.88,12.06,12.88h.43a11.27,11.27,0,0,0,8.39-4.37,14.09,14.09,0,0,0,3-9.47,14.73,14.73,0,0,0-1.21-5.27,13.66,13.66,0,0,0-3-4.34c-.18-.17-.36-.34-.55-.5l.1,7.63v.06c0,.17,0,.33,0,.5a10.23,10.23,0,0,1,.31,2.1,9.73,9.73,0,0,1-2,6.53,6.94,6.94,0,0,1-5.13,2.73c-4.17.16-7.72-3.71-7.92-8.65a10.65,10.65,0,0,1,.13-2.12,6.53,6.53,0,0,1-.14-1.33l-.08-7.21c-.22.2-.43.4-.64.62s-.45.48-.66.74A13.84,13.84,0,0,0,251.56,146.54Z"/><path class="cls-7" d="M208.8,162.94a7,7,0,0,0,5.14-2.72,9.76,9.76,0,0,0,2.05-6.53,11.13,11.13,0,0,0-.53-2.88,6.08,6.08,0,0,1-5.92,4.76h-.11l-2.73-.06a6,6,0,0,1-4.24-1.85,6.07,6.07,0,0,1-1.33-2.12,10.44,10.44,0,0,0-.25,2.75C201.09,159.23,204.67,163.11,208.8,162.94Z"/><path class="cls-3" d="M215.52,143.32l.08,6.24v.07a6.56,6.56,0,0,1-.14,1.18,11.13,11.13,0,0,1,.53,2.88,9.76,9.76,0,0,1-2.05,6.53,7,7,0,0,1-5.14,2.72c-4.13.17-7.71-3.71-7.92-8.65a10.44,10.44,0,0,1,.25-2.75,6.06,6.06,0,0,1-.37-2.16l-.07-5.66a12.68,12.68,0,0,0-2.88,4,14.54,14.54,0,0,0-1.33,6.73c.3,7.2,5.66,12.88,12.06,12.88H209a11.29,11.29,0,0,0,8.39-4.36,14.16,14.16,0,0,0,3-9.47h0a14.61,14.61,0,0,0-1.68-6.23A13.28,13.28,0,0,0,215.52,143.32Z"/><path class="cls-7" d="M165.78,151.64a6.07,6.07,0,0,1-6.05,5.94h-.12l-2.72-.06a6,6,0,0,1-4.25-1.85,6.19,6.19,0,0,1-1.06-1.5c0,.21,0,.43,0,.64.2,4.94,3.75,8.81,7.92,8.65a7,7,0,0,0,5.14-2.72,9.7,9.7,0,0,0,2-6.53,10.13,10.13,0,0,0-.91-3.86v1.29Z"/><path class="cls-3" d="M159.24,167.87h.44a11.29,11.29,0,0,0,8.39-4.36,14.17,14.17,0,0,0,3-9.48,14.7,14.7,0,0,0-1.4-5.66,13.55,13.55,0,0,0-3.25-4.33c-.25-.21-.5-.41-.76-.6l.09,6.92a10.13,10.13,0,0,1,.91,3.86,9.7,9.7,0,0,1-2,6.53,7,7,0,0,1-5.14,2.72c-4.17.16-7.72-3.71-7.92-8.65,0-.21,0-.43,0-.64a6.13,6.13,0,0,1-.63-2.78l-.08-6.63c-.23.25-.46.49-.67.76a13.17,13.17,0,0,0-1.95,3.32,14.6,14.6,0,0,0-1.07,6.15C147.48,162.19,152.84,167.87,159.24,167.87Z"/><path class="cls-8" d="M155.35,151.37v.07a1.63,1.63,0,0,0,.46,1.17,1.66,1.66,0,0,0,1.16.51h0l2.72,0h0a1.66,1.66,0,0,0,1.65-1.59l-.22-18.18v-.07a1.72,1.72,0,0,0-.46-1.18,1.69,1.69,0,0,0-1.16-.5l-2.73-.05a1.66,1.66,0,0,0-1.68,1.59Z"/><path class="cls-3" d="M151,151.39a6.13,6.13,0,0,0,.63,2.78,6.19,6.19,0,0,0,1.06,1.5,6,6,0,0,0,4.25,1.85l2.72.06h.12a6.07,6.07,0,0,0,6.05-5.94v-1.29l-.09-6.92-.12-10.05a6.06,6.06,0,0,0-5.94-6.14l-2.72,0a6.06,6.06,0,0,0-6.17,5.94v.07l.13,11.18v.38Zm4.18-18.2a1.66,1.66,0,0,1,1.68-1.59l2.73.05a1.69,1.69,0,0,1,1.16.5,1.72,1.72,0,0,1,.46,1.18v.07l.22,18.18a1.66,1.66,0,0,1-1.65,1.59h0l-2.72,0h0a1.66,1.66,0,0,1-1.16-.51,1.63,1.63,0,0,1-.46-1.17v-.07Z"/><path class="cls-8" d="M205.17,149.36v.07a1.59,1.59,0,0,0,.46,1.17,1.64,1.64,0,0,0,1.16.51h0l2.72,0h0a1.65,1.65,0,0,0,1.65-1.59L211,131.39v-.07a1.63,1.63,0,0,0-.46-1.18,1.69,1.69,0,0,0-1.16-.5l-2.72,0a1.65,1.65,0,0,0-1.68,1.59Z"/><path class="cls-3" d="M200.76,149.38a6,6,0,0,0,1.7,4.28,6,6,0,0,0,4.24,1.85l2.73.06h.11a6.08,6.08,0,0,0,5.92-4.76,6.56,6.56,0,0,0,.14-1.18v-.07l-.08-6.24v-.38l-.14-11.57a6.08,6.08,0,0,0-5.95-6.14l-2.72,0a6.07,6.07,0,0,0-6.17,5.94v.07l.15,12.08v.45Zm4.19-18.2a1.65,1.65,0,0,1,1.68-1.59l2.72,0a1.69,1.69,0,0,1,1.16.5,1.63,1.63,0,0,1,.46,1.18v.07l.22,18.18a1.65,1.65,0,0,1-1.65,1.59h0l-2.72,0h0a1.64,1.64,0,0,1-1.16-.51,1.59,1.59,0,0,1-.46-1.17v-.07Z"/><path class="cls-8" d="M259.45,148.64v.07a1.61,1.61,0,0,0,.46,1.17,1.66,1.66,0,0,0,1.16.51h0l2.72.05a1.67,1.67,0,0,0,1.68-1.59l-.22-18.18v-.07a1.63,1.63,0,0,0-.46-1.18,1.69,1.69,0,0,0-1.16-.5l-2.72,0h0a1.65,1.65,0,0,0-1.65,1.59Z"/><path class="cls-3" d="M255,148.66a6.53,6.53,0,0,0,.14,1.33,6,6,0,0,0,5.81,4.8l2.72.05h.11a6.07,6.07,0,0,0,6-5.45c0-.17,0-.33,0-.5v-.06l-.1-7.63-.12-10.56a6.08,6.08,0,0,0-5.94-6.14l-2.73-.05h-.11a6.07,6.07,0,0,0-6.06,5.94v.07l.14,11Zm4.19-18.2a1.65,1.65,0,0,1,1.65-1.59h0l2.72,0a1.69,1.69,0,0,1,1.16.5,1.63,1.63,0,0,1,.46,1.18v.07l.22,18.18a1.67,1.67,0,0,1-1.68,1.59l-2.72-.05h0a1.66,1.66,0,0,1-1.16-.51,1.61,1.61,0,0,1-.46-1.17v-.07Z"/><path class="cls-7" d="M318.48,160.76a7,7,0,0,0,5.14-2.73,9.73,9.73,0,0,0,2.05-6.53h0a11,11,0,0,0-.31-2.1,6.07,6.07,0,0,1-6,5.45h-.12l-2.72-.05a6,6,0,0,1-5.81-4.8,10.65,10.65,0,0,0-.13,2.12C310.76,157.05,314.3,160.92,318.48,160.76Z"/><path class="cls-3" d="M325.39,148.84v.06c0,.17,0,.33,0,.5a11,11,0,0,1,.31,2.1h0a9.73,9.73,0,0,1-2.05,6.53,7,7,0,0,1-5.14,2.73c-4.18.16-7.72-3.71-7.92-8.65a10.65,10.65,0,0,1,.13-2.12,5.89,5.89,0,0,1-.13-1.33l-.09-7.21a12.84,12.84,0,0,0-1.29,1.36,13.08,13.08,0,0,0-1.56,2.48,14.55,14.55,0,0,0-1.46,7c.3,7.2,5.66,12.88,12.06,12.88h.44a11.27,11.27,0,0,0,8.39-4.37,14.15,14.15,0,0,0,3-9.47,14.44,14.44,0,0,0-1.83-6.49,13.3,13.3,0,0,0-2.94-3.61Z"/><path class="cls-8" d="M315,148.64v.07a1.66,1.66,0,0,0,.47,1.17,1.61,1.61,0,0,0,1.15.51h0l2.73.05h0a1.66,1.66,0,0,0,1.65-1.59l-.22-18.18v-.07a1.67,1.67,0,0,0-.46-1.18,1.69,1.69,0,0,0-1.16-.5l-2.72,0h0a1.66,1.66,0,0,0-1.65,1.59Z"/><path class="cls-3" d="M310.56,148.66a5.89,5.89,0,0,0,.13,1.33,6,6,0,0,0,5.81,4.8l2.72.05h.12a6.07,6.07,0,0,0,6-5.45c0-.17,0-.33,0-.5v-.06l-.09-7.62v-.73l-.12-9.84a6.06,6.06,0,0,0-5.94-6.14l-2.72-.05h-.12a6.06,6.06,0,0,0-6.05,5.94v.07l.12,10.35v.63Zm4.18-18.2a1.66,1.66,0,0,1,1.65-1.59h0l2.72,0a1.69,1.69,0,0,1,1.16.5,1.67,1.67,0,0,1,.46,1.18v.07l.22,18.18a1.66,1.66,0,0,1-1.65,1.59h0l-2.73-.05h0a1.61,1.61,0,0,1-1.15-.51,1.66,1.66,0,0,1-.47-1.17v-.07Z"/><path class="cls-9" d="M171,250.24l8.77.25a5.37,5.37,0,0,0,5.49-4.75l1.42-12.24,14,.4a5.37,5.37,0,0,0,5.49-4.75l.68-5.86a5.37,5.37,0,0,0-5.18-6l-13.06-.37,1.31-11.3a5.37,5.37,0,0,0-5.18-6l-8.78-.25a5.36,5.36,0,0,0-5.48,4.75l-1.43,12.24L155.72,216a5.38,5.38,0,0,0-5.49,4.75l-.68,5.86a5.38,5.38,0,0,0,5.19,6l12.43.35-1.32,11.3A5.38,5.38,0,0,0,171,250.24Z"/><path class="cls-10" d="M314.41,321.22l-27.32-.65a6.37,6.37,0,0,0-6.34,5.6l-2.37,21.39a5.17,5.17,0,0,0,5.07,5.87l27.32.65a6.15,6.15,0,0,0,3.18-.84,64.71,64.71,0,0,1,5-21.06l.57-5.09A5.17,5.17,0,0,0,314.41,321.22Z"/><path class="cls-10" d="M324.84,227.21l-27.32-.65a6.37,6.37,0,0,0-6.34,5.6l-2.38,21.39a5.17,5.17,0,0,0,5.07,5.87l27.33.65a6.37,6.37,0,0,0,6.34-5.6l2.37-21.39A5.17,5.17,0,0,0,324.84,227.21Z"/><path class="cls-10" d="M319.63,274.22l-27.32-.65a6.37,6.37,0,0,0-6.35,5.6l-2.37,21.39a5.16,5.16,0,0,0,5.07,5.86l27.32.65a6.37,6.37,0,0,0,6.35-5.59l2.37-21.4A5.16,5.16,0,0,0,319.63,274.22Z"/><path class="cls-10" d="M233.36,302.79l27.29,1.55a6.37,6.37,0,0,0,6.52-5.39l3.08-21.3a5.17,5.17,0,0,0-4.87-6l-27.29-1.55a6.36,6.36,0,0,0-6.52,5.38l-3.08,21.3A5.17,5.17,0,0,0,233.36,302.79Z"/><path class="cls-10" d="M210.08,268.47l-27.29-1.55a6.36,6.36,0,0,0-6.52,5.39l-3.08,21.3a5.16,5.16,0,0,0,4.87,6l27.29,1.55a6.37,6.37,0,0,0,6.52-5.38l3.08-21.3A5.17,5.17,0,0,0,210.08,268.47Z"/><path class="cls-10" d="M155.3,265.36,128,263.8a6.37,6.37,0,0,0-6.52,5.39l-3.08,21.3a5.17,5.17,0,0,0,4.87,6l27.29,1.55a6.36,6.36,0,0,0,6.52-5.38l3.08-21.3A5.16,5.16,0,0,0,155.3,265.36Z"/><path class="cls-10" d="M260.4,345.76l3.08-21.3a5.16,5.16,0,0,0-4.87-6l-27.29-1.56a6.38,6.38,0,0,0-6.52,5.39l-3.08,21.3a5.17,5.17,0,0,0,4.87,6l27.29,1.56A6.38,6.38,0,0,0,260.4,345.76Z"/><path class="cls-10" d="M203.31,315.28,176,313.73a6.37,6.37,0,0,0-6.52,5.38l-3.08,21.3a5.17,5.17,0,0,0,4.87,6L198.58,348a6.36,6.36,0,0,0,6.52-5.39l3.08-21.3A5.16,5.16,0,0,0,203.31,315.28Z"/><path class="cls-10" d="M148.53,312.16l-27.28-1.55a6.38,6.38,0,0,0-6.53,5.38l-3.08,21.3a5.18,5.18,0,0,0,4.88,6l27.28,1.55a6.38,6.38,0,0,0,6.53-5.38l3.08-21.3A5.18,5.18,0,0,0,148.53,312.16Z"/><path class="cls-10" d="M240,255.88l27.28,1.72a6.39,6.39,0,0,0,6.56-5.35l3.2-21.28a5.17,5.17,0,0,0-4.84-6.06L245,223.19a6.39,6.39,0,0,0-6.56,5.35l-3.2,21.28A5.16,5.16,0,0,0,240,255.88Z"/><path class="cls-11" d="M408.54,299.55c-1.66-.85-3.37-1.63-5.11-2.35a64.85,64.85,0,0,0-24.54-4.81,65.73,65.73,0,0,0-11.21,1q-2.24.39-4.41.93a65,65,0,0,0-23.52,11.22c-.6.45-1.18.91-1.77,1.38q-2.4,2-4.61,4.12A64.74,64.74,0,0,0,314,353.24c-.09,1.4-.14,2.81-.14,4.23a63.3,63.3,0,0,0,.4,7.2c.16,1.51.38,3,.64,4.46.2,1.11.43,2.21.69,3.29a64.59,64.59,0,0,0,8.56,20.15q1.54,2.4,3.29,4.65a65.05,65.05,0,1,0,102-80.7A65.65,65.65,0,0,0,408.54,299.55Zm26.41,58a8,8,0,0,1,8,9.13,64.54,64.54,0,0,1-53.79,54.61,8.72,8.72,0,0,1-10.09-8.6v-4.47a1.07,1.07,0,0,1,.13-.51,49.14,49.14,0,1,1,50-50,1,1,0,0,1,.51-.14Z"/><path class="cls-12" d="M429.23,358.54a49.21,49.21,0,0,1-49.15,49.15l-.9,0a1.07,1.07,0,0,0-.13.51v4.47a8.72,8.72,0,0,0,10.09,8.6,64.54,64.54,0,0,0,53.79-54.61,8,8,0,0,0-8-9.13h-5.23a1,1,0,0,0-.51.14C429.21,357.94,429.23,358.24,429.23,358.54Z"/><path class="cls-13" d="M380.08,313.79a44.75,44.75,0,1,0,44.74,44.75A44.8,44.8,0,0,0,380.08,313.79Zm30.42,48.39v1.27A1.5,1.5,0,0,1,409,365H379a1.5,1.5,0,0,1-1.5-1.5v-1.27a1.28,1.28,0,0,1,.09-.48V342.18a1.5,1.5,0,0,1,1.49-1.5h1.27a1.5,1.5,0,0,1,1.5,1.5v18.51H409A1.5,1.5,0,0,1,410.5,362.18Z"/><path class="cls-3" d="M429.23,358.54c0-.3,0-.6,0-.89a49.14,49.14,0,1,0-50,50l.9,0A49.21,49.21,0,0,0,429.23,358.54Zm-49.15,44.75a44.75,44.75,0,1,1,44.74-44.75A44.8,44.8,0,0,1,380.08,403.29Z"/><path class="cls-14" d="M379,360.69h2.85V342.18a1.5,1.5,0,0,0-1.5-1.5H379.1a1.5,1.5,0,0,0-1.49,1.5V361.7A1.48,1.48,0,0,1,379,360.69Z"/><path class="cls-14" d="M381.87,360.69H379a1.48,1.48,0,0,0-1.41,1,1.28,1.28,0,0,0-.09.48v1.27A1.5,1.5,0,0,0,379,365h30a1.5,1.5,0,0,0,1.5-1.5v-1.27a1.5,1.5,0,0,0-1.5-1.49Z"/></svg>