<svg id="Layer_1" data-name="Layer 1" xmlns="http://www.w3.org/2000/svg" viewBox="0 0 418 369.44"><defs><style>.cls-1{fill:#d3e2df;}.cls-2{fill:#f0efef;}.cls-3{fill:#010101;}.cls-4{fill:#c9c9c9;}.cls-5{fill:#00a99b;}.cls-6{fill:#0c8d7f;}.cls-7{fill:#e4eae9;}</style></defs><title>icon-2</title><path class="cls-1" d="M411.46,195.23C394.22,132.82,357.1,78.88,321.09,44.59,283.94,9.92,247.9-5.12,206.55,1.54,165.44,8.43,128.86,35.31,92.43,69.59,57,104.16,21.68,146.13,6,189.9-10,234,7.09,270.67,45.4,296.41c32.41,22.28,80.18,36.63,133,47.41a90.67,90.67,0,0,1-5-20,117.65,117.65,0,0,1-45.79-17.51,121.23,121.23,0,0,1-36.26-36c-12-18.27-19.85-40.51-23.49-66.13l0-.16a198,198,0,0,1,2-41.68c3.23-21.76,11.49-52.88,32.42-77.59,20.68-24.41,49.78-38.3,86.48-41.3,33.1-2.7,61.87,1,85.53,11a115.54,115.54,0,0,1,48.06,37.26c14.43,19.2,23.43,43,26.75,70.84.08.71.15,1.28.21,1.69C355,204,355.88,299.11,242.7,322.47a132.09,132.09,0,0,1-19.76,2.4c-3.15.17-8.76,6.44-10.05,14.76a19.05,19.05,0,0,0,1.32,10.75c60.74,9.2,117.65,10.2,155.78-15C409.71,310.71,429.07,257.62,411.46,195.23Z"/><path class="cls-2" d="M207.47,338.8c1.57-10.17,8.52-19.05,15.18-19.4a128,128,0,0,0,18.95-2.3c47.28-9.76,79-33.39,94.15-70.23,12.15-29.46,11.13-60.8,8.13-81.89-.06-.44-.13-1-.22-1.81C340.46,136.34,331.81,113.4,318,95,291.36,59.6,248,44.1,189.21,48.9c-35.2,2.87-63,16.12-82.75,39.37-38,44.84-33.38,112.61-33.18,115.2,3.52,24.71,11.1,46.13,22.54,63.67a115.83,115.83,0,0,0,34.5,34.44c23.51,15.12,45.49,17,45.7,17.06l2.22.18.29,2.2c2.61,20.47,9.27,33.8,19.79,39.64,7.38,4.09,15.25,3.62,20.53,2.51C212.48,359.18,205.48,351.74,207.47,338.8Zm36.1-150.47a7.8,7.8,0,0,1,5.58-2.32h8.37a7.86,7.86,0,0,1,7.85,7.85V232a7.86,7.86,0,0,1-7.85,7.85h-8a7.87,7.87,0,0,1-7.85-7.78l-.35-38.15A7.82,7.82,0,0,1,243.57,188.33ZM169,240.6a7,7,0,0,1,1.2-5.92c-5.6-1.57-8.81-4-9.76-7.46-.9-3.27.62-6.34,2.21-8.47-6-3.33-8.86-6.86-8.73-10.76.13-3.51,2.75-6.14,5.29-7.88-4.76-3.14-7.17-6.59-7.19-10.3,0-6.68,7.68-10.72,8.56-11.16l1-.48,1,.29c1.61.46,10.14-.15,17.12-1l.32,0c1,0,1.71-.19,1.9-.49.44-.68.05-2.61-.41-3.64l-.08-.22-3.48-10c-6.13-11.53-2-23.28-1.84-23.78l.2-.54.39-.41c3-3.16,6-4.42,8.82-3.74,4.5,1,6.26,6.43,6.45,7l.08.35a39.81,39.81,0,0,0,2.68,10c8.9,9.71,11.23,14.68,12.62,17.67a10.12,10.12,0,0,0,.93,1.74,37.46,37.46,0,0,0,5.33,3.87c3.27,2.17,7.74,5.14,12.52,9a12.49,12.49,0,0,0,4.58,1.89,10.52,10.52,0,0,1,7.84,10.42h0l-.66,34.05a7.52,7.52,0,0,1-7.48,7.33h-1c-4.87,3.7-12.33,4.35-13.55,4.43-11,1.76-30.36,4.4-30.56,4.42l-.23,0h-.24C175.17,246.49,170.16,244.5,169,240.6Z"/><path class="cls-2" d="M174.19,239a1.27,1.27,0,0,0,.3.32l-.13-1A1.1,1.1,0,0,0,174.19,239Z"/><path class="cls-2" d="M232.3,230.84a2.43,2.43,0,0,0,0-.3l.66-34a5.06,5.06,0,0,0-3.76-5,17.78,17.78,0,0,1-6.63-2.93c-4.57-3.69-8.75-6.46-12.1-8.69s-5.48-3.63-6.58-5a13.14,13.14,0,0,1-1.61-2.84c-1.28-2.73-3.41-7.29-12-16.56l-.21-.23-.15-.27c-.21-.36-2-3.71-3.4-11.8-.42-1.22-1.45-2.94-2.4-3.16-.71-.16-1.87.48-3.16,1.74-.63,2.18-2.66,10.83,1.77,19l.18.4,3.51,10.12c.39.92,2.1,5.42-.05,8.73-.87,1.35-2.68,2.94-6.33,3-3.45.4-13.46,1.48-17.86,1-1.76,1.06-4.82,3.42-4.81,5.84s3.08,5.21,8.62,7.92l5.69,2.79-5.93,2.24c-2.57,1-6.41,3.39-6.48,5.43,0,.74.55,3.43,8.88,7.26l3.93,1.81L168.84,220c-1.25,1.07-3.68,3.88-3.16,5.73.2.72,1.53,3.16,10.27,4.56l6.43,1-5.23,3.87a12.11,12.11,0,0,0-1.92,1.84l56.87-7.67Z"/><path class="cls-2" d="M184.38,241.36h.32c1.15-.16,6.24-.86,12.33-1.72Z"/><path class="cls-3" d="M212.89,339.63c1.29-8.32,6.9-14.59,10.05-14.76a132.09,132.09,0,0,0,19.76-2.4C355.88,299.11,355,204,349.31,164.21c-.06-.41-.13-1-.21-1.69-3.32-27.8-12.32-51.64-26.75-70.84a115.54,115.54,0,0,0-48.06-37.26c-23.66-10-52.43-13.69-85.53-11-36.7,3-65.8,16.89-86.48,41.3-20.93,24.71-29.19,55.83-32.42,77.59a198,198,0,0,0-2,41.68l0,.16c3.64,25.62,11.54,47.86,23.49,66.13a121.23,121.23,0,0,0,36.26,36,117.65,117.65,0,0,0,45.79,17.51,90.67,90.67,0,0,0,5,20c4,10.21,9.75,17.46,17.26,21.63a32.55,32.55,0,0,0,16,4,40.88,40.88,0,0,0,15.74-3.19l6-2.75-6.16-2.31c-7.33-2.74-11.12-6.76-13-10.81A19.05,19.05,0,0,1,212.89,339.63Zm-14.57,21c-10.52-5.84-17.18-19.17-19.79-39.64l-.29-2.2-2.22-.18c-.21,0-22.19-1.94-45.7-17.06a115.83,115.83,0,0,1-34.5-34.44c-11.44-17.54-19-39-22.54-63.67-.2-2.59-4.8-70.36,33.18-115.2C126.17,65,154,51.77,189.21,48.9,248,44.1,291.36,59.6,318,95c13.84,18.42,22.49,41.36,25.69,68.19.09.76.16,1.37.22,1.81,3,21.09,4,52.43-8.13,81.89-15.19,36.84-46.87,60.47-94.15,70.23a128,128,0,0,1-18.95,2.3c-6.66.35-13.61,9.23-15.18,19.4-2,12.94,5,20.38,11.38,24.37C213.57,364.28,205.7,364.75,198.32,360.66Z"/><path class="cls-4" d="M215,237l.29,0c2.08-.11,8.16-1,11.18-3.73l.79-.71h3.06a2,2,0,0,0,2-1.66l-.2-1.45-56.87,7.67a7.43,7.43,0,0,0-.87,1.27l.13,1c.72.57,3,1.73,9.89,2.06L197,239.65C203,238.8,209.93,237.79,215,237Z"/><path class="cls-3" d="M185.2,246.83c.2,0,19.54-2.66,30.56-4.42,1.22-.08,8.68-.73,13.55-4.43h1a7.52,7.52,0,0,0,7.48-7.33l.66-34.05h0a10.52,10.52,0,0,0-7.84-10.42,12.49,12.49,0,0,1-4.58-1.89c-4.78-3.86-9.25-6.83-12.52-9a37.46,37.46,0,0,1-5.33-3.87,10.12,10.12,0,0,1-.93-1.74c-1.39-3-3.72-8-12.62-17.67A39.81,39.81,0,0,1,192,142l-.08-.35c-.19-.61-2-6-6.45-7-2.87-.68-5.84.58-8.82,3.74l-.39.41-.2.54c-.18.5-4.29,12.25,1.84,23.78l3.48,10,.08.22c.46,1,.85,3,.41,3.64-.19.3-.92.49-1.9.49l-.32,0c-7,.82-15.51,1.43-17.12,1l-1-.29-1,.48c-.88.44-8.59,4.48-8.56,11.16,0,3.71,2.43,7.16,7.19,10.3-2.54,1.74-5.16,4.37-5.29,7.88-.13,3.9,2.73,7.43,8.73,10.76-1.59,2.13-3.11,5.2-2.21,8.47,1,3.43,4.16,5.89,9.76,7.46a7,7,0,0,0-1.2,5.92c1.21,3.9,6.22,5.89,15.78,6.26H185Zm-.5-5.46h-.32c-6.88-.33-9.17-1.49-9.89-2.06a1.27,1.27,0,0,1-.3-.32,1.1,1.1,0,0,1,.17-.65,7.43,7.43,0,0,1,.87-1.27,12.11,12.11,0,0,1,1.92-1.84l5.23-3.87-6.43-1c-8.74-1.4-10.07-3.84-10.27-4.56-.52-1.85,1.91-4.66,3.16-5.73l3.32-2.78-3.93-1.81c-8.33-3.83-8.9-6.52-8.88-7.26.07-2,3.91-4.45,6.48-5.43l5.93-2.24-5.69-2.79c-5.54-2.71-8.6-5.52-8.62-7.92s3.05-4.78,4.81-5.84c4.4.47,14.41-.61,17.86-1,3.65,0,5.46-1.64,6.33-3,2.15-3.31.44-7.81.05-8.73L183,161.11l-.18-.4c-4.43-8.16-2.4-16.81-1.77-19,1.29-1.26,2.45-1.9,3.16-1.74,1,.22,2,1.94,2.4,3.16,1.37,8.09,3.19,11.44,3.4,11.8l.15.27.21.23c8.55,9.27,10.68,13.83,12,16.56a13.14,13.14,0,0,0,1.61,2.84c1.1,1.39,3.28,2.83,6.58,5s7.53,5,12.1,8.69a17.78,17.78,0,0,0,6.63,2.93,5.06,5.06,0,0,1,3.76,5l-.66,34a2.43,2.43,0,0,1,0,.3,2,2,0,0,1-2,1.66h-3.06l-.79.71c-3,2.72-9.1,3.62-11.18,3.73l-.29,0c-5.09.82-12,1.83-18,2.68S185.85,241.21,184.7,241.37Z"/><path class="cls-5" d="M249.15,191.49a2.37,2.37,0,0,0-2.37,2.39l.35,38.15a2.4,2.4,0,0,0,.58,1.52v-4.31h.2a3,3,0,0,1-.08-.68,3.11,3.11,0,1,1,6.21,0,3,3,0,0,1-.08.68h5.93V193.86a2.37,2.37,0,0,0-2.37-2.37Z"/><path class="cls-3" d="M249.5,239.86h8a7.86,7.86,0,0,0,7.85-7.85V193.86a7.86,7.86,0,0,0-7.85-7.85h-8.37a7.84,7.84,0,0,0-7.85,7.92l.35,38.15A7.87,7.87,0,0,0,249.5,239.86Zm10.39-46v35.38H260v5.49H247.71v-1.18a2.4,2.4,0,0,1-.58-1.52l-.35-38.15a2.37,2.37,0,0,1,2.37-2.39h8.37A2.37,2.37,0,0,1,259.89,193.86Z"/><path class="cls-6" d="M250.94,231.67a3.11,3.11,0,0,1-3-2.43h-.2v5.49H260v-5.49h-6A3.1,3.1,0,0,1,250.94,231.67Z"/><path class="cls-7" d="M250.94,231.67a3.1,3.1,0,0,0,3-2.43,3,3,0,0,0,.08-.68,3.11,3.11,0,1,0-6.21,0,3,3,0,0,0,.08.68A3.11,3.11,0,0,0,250.94,231.67Z"/></svg>